<svg xmlns="http://www.w3.org/2000/svg" xmlns:xlink="http://www.w3.org/1999/xlink" viewBox="0 0 2268.97 1424.31" xmlns:v="https://vecta.io/nano"><style><![CDATA[.D,.F{mix-blend-mode:multiply}.Dh{fill:#91b3fa}.Di{fill:#fff}.Dj{fill:#bdd0fb}.Dk{fill:#7d97f4}.Dl{opacity:.48}.Dm{color-interpolation-filters:sRGB}.Dn{flood-color:#fff}]]></style><defs><filter  x="755.7" y="-8893.93" width="129.7" height="32766" filterUnits="userSpaceOnUse" class="Dm"><feFlood class="Dn"/><feBlend in="SourceGraphic"/></filter><mask id="B" x="755.7" y="-8893.93" width="129.7" height="32766" maskUnits="userSpaceOnUse"/><linearGradient id="C" x1="788.44" y1="1076.38" x2="971.35" y2="1121.93" xlink:href="#Db"><stop offset="0" stop-color="#fff"/><stop offset="1"/></linearGradient><filter  x="904.59" y="-8893.93" width="129.7" height="32766" filterUnits="userSpaceOnUse" class="Dm"><feFlood class="Dn"/><feBlend in="SourceGraphic"/></filter><mask id="E" x="904.59" y="-8893.93" width="129.7" height="32766" maskUnits="userSpaceOnUse"/><linearGradient id="F" x1="1001.55" x2="818.65" xlink:href="#C"/><linearGradient id="G" y1="652.53" x2="2235.62" y2="652.53" xlink:href="#Db"><stop offset="0" stop-color="#dae3fe"/><stop offset="1" stop-color="#e9effd"/></linearGradient><linearGradient id="H" x1="52.04" y1="1064.09" x2="410.48" y2="1064.09" xlink:href="#Db"><stop offset="0" stop-color="#4042e2"/><stop offset="1" stop-color="#4f52ff"/></linearGradient><linearGradient id="I" y1="1269.78" y2="1269.78" xlink:href="#H"/><linearGradient id="J" x1="45.66" y1="900.06" x2="404.1" y2="900.06" xlink:href="#H"/><linearGradient id="K" y1="1007.81" y2="1007.81" xlink:href="#H"/><linearGradient id="L" x1="502.42" y1="1205.36" x2="499.42" y2="1476.85" xlink:href="#H"/><linearGradient id="M" x1="314.18" y1="1019.37" x2="677.36" y2="1019.37" xlink:href="#G"/><linearGradient id="N" x1="314.18" y1="1035.92" x2="677.36" y2="1035.92" xlink:href="#G"/><linearGradient id="O" x1="314.18" y1="1052.47" x2="677.36" y2="1052.47" xlink:href="#G"/><linearGradient id="P" x1="314.18" y1="1069.02" x2="677.36" y2="1069.02" xlink:href="#G"/><linearGradient id="Q" x1="314.18" y1="1085.57" x2="677.36" y2="1085.57" xlink:href="#G"/><linearGradient id="R" x1="521.38" y1="1043.58" x2="528.38" y2="1327.11" xlink:href="#H"/><linearGradient id="S" x1="-119.06" y1="768.45" x2="440.89" y2="899.48" xlink:href="#H"/><linearGradient id="T" x1="262.88" y1="788.65" x2="667.85" y2="751.11" xlink:href="#H"/><linearGradient id="U" x1="269.87" y1="864.07" x2="674.85" y2="826.53" xlink:href="#H"/><linearGradient id="V" x1="252.3" y1="792.46" x2="566.79" y2="792.46" xlink:href="#G"/><linearGradient id="W" x1="259.69" y1="805.28" x2="566.79" y2="805.28" xlink:href="#G"/><linearGradient id="X" x1="263.48" y1="814.71" x2="566.79" y2="814.71" xlink:href="#G"/><linearGradient id="Y" x1="395.97" y1="712.86" x2="897.54" y2="697.63" xlink:href="#H"/><linearGradient id="Z" x1="776.16" y1="610.99" x2="636.45" y2="755.62" xlink:href="#Db"><stop offset="0" stop-color="#53d8ff"/><stop offset="1" stop-color="#3840f7"/></linearGradient><linearGradient id="a" x1="1262.08" y1="-854.48" x2="1280.08" y2="441.26" xlink:href="#Db"><stop offset="0" stop-color="#09005d"/><stop offset="1" stop-color="#1a0f91"/></linearGradient><linearGradient id="b" x1="1330.57" y1="152.11" x2="1221.41" y2="1760.76" xlink:href="#H"/><linearGradient id="c" x1="2045.57" y1="1269.13" x2="1273.61" y2="1330.18" xlink:href="#H"/><linearGradient id="d" x1="548.33" y1="1295" x2="1294.06" y2="1295" xlink:href="#H"/><linearGradient id="e" x1="1250.1" y1="1334.61" x2="1335.65" y2="1334.61" xlink:href="#a"/><linearGradient id="f" x1="1308.16" y1="1200.21" x2="1299.16" y2="1272.21" xlink:href="#a"/><linearGradient id="g" x1="590.78" y1="340.85" x2="1231" y2="340.85" xlink:href="#G"/><linearGradient id="h" x1="582.13" y1="388.36" x2="1222.36" y2="388.36" xlink:href="#G"/><linearGradient id="i" x1="582.13" y1="437.34" x2="1222.36" y2="437.34" xlink:href="#G"/><linearGradient id="j" x1="587.64" y1="479.4" x2="1227.87" y2="479.4" xlink:href="#G"/><linearGradient id="k" x1="971.88" y1="519.23" x2="1226.68" y2="519.23" xlink:href="#G"/><linearGradient id="l" x1="586.46" y1="525.38" x2="765.28" y2="525.38" xlink:href="#G"/><linearGradient id="m" x1="975.81" y1="566.73" x2="1218.04" y2="566.73" xlink:href="#G"/><linearGradient id="n" x1="577.81" y1="572.97" x2="754.63" y2="572.97" xlink:href="#G"/><linearGradient id="o" x1="975.81" y1="615.72" x2="1218.04" y2="615.72" xlink:href="#G"/><linearGradient id="p" x1="577.81" y1="622.13" x2="750.87" y2="622.13" xlink:href="#G"/><linearGradient id="q" x1="975.81" y1="657.78" x2="1223.55" y2="657.78" xlink:href="#G"/><linearGradient id="r" x1="583.32" y1="664.27" x2="754.63" y2="664.27" xlink:href="#G"/><linearGradient id="s" x1="1592.08" y1="57.16" x2="1451.56" y2="213.2" xlink:href="#H"/><linearGradient id="t" x1="1265.02" y1="160.21" x2="1367.54" y2="191.63" xlink:href="#H"/><linearGradient id="u" x1="-1352.52" y1="54.08" x2="-1294.81" y2="54.08" gradientTransform="matrix(-1, -0.04, -0.04, 1, 530.92, 6.99)" xlink:href="#H"/><linearGradient id="v" x1="-1353.15" y1="64.44" x2="-1294.86" y2="64.44" gradientTransform="matrix(-1, -0.04, -0.04, 1, 530.92, 6.99)" xlink:href="#a"/><linearGradient id="w" x1="-1310.04" y1="65.64" x2="-1294.82" y2="169.78" gradientTransform="matrix(-1, -0.04, -0.04, 1, 530.92, 6.99)" xlink:href="#Db"><stop offset="0" stop-color="#ff928e"/><stop offset="1" stop-color="#feb3b1"/></linearGradient><linearGradient id="x" x1="-1446.98" y1="102.2" x2="-1378.23" y2="102.2" gradientTransform="matrix(-1, -0.04, -0.04, 1, 530.92, 6.99)" xlink:href="#a"/><linearGradient id="y" x1="-1449.91" y1="99.64" x2="-1382.98" y2="99.64" gradientTransform="matrix(-1, -0.04, -0.04, 1, 530.92, 6.99)" xlink:href="#H"/><linearGradient id="z" x1="-1386.73" y1="76.85" x2="-1371.51" y2="180.99" xlink:href="#w"/><linearGradient id="AA" x1="1728.58" y1="48.93" x2="1928.37" y2="382.61" xlink:href="#Db"><stop offset="0" stop-color="#4042e2"/><stop offset=".59" stop-color="#494bf3"/><stop offset="1" stop-color="#4f52ff"/></linearGradient><linearGradient id="AB" x1="1828.77" y1="51.32" x2="1809.77" y2="187.32" xlink:href="#H"/><linearGradient id="AC" x1="1681.17" y1="97.23" x2="1559.17" y2="383.23" xlink:href="#a"/><linearGradient id="AD" x1="1574.57" y1="157.43" x2="1596.07" y2="216.93" xlink:href="#w"/><linearGradient id="AE" x1="-1390.51" y1="533.5" x2="-1363.01" y2="480.5" gradientTransform="matrix(-1.02, -0.04, -0.05, 1.15, 519.89, 343.68)" xlink:href="#w"/><linearGradient id="AF" x1="-1011.84" y1="-281.39" x2="-998.43" y2="-204.87" gradientTransform="matrix(-1.02, -0.04, -0.05, 1.15, 519.89, 343.68)" xlink:href="#a"/><linearGradient id="AG" x1="-1405.34" y1="525.78" x2="-1377.84" y2="472.78" gradientTransform="matrix(-1.02, -0.04, -0.05, 1.15, 519.89, 343.68)" xlink:href="#w"/><linearGradient id="AH" x1="1643.02" y1="-28.09" x2="1621.02" y2="115.91" xlink:href="#a"/><linearGradient id="AI" x1="-1070.18" y1="22.26" x2="-1072.18" y2="83.59" gradientTransform="matrix(-1, -0.04, -0.04, 1, 530.92, 6.99)" xlink:href="#Db"><stop offset="0" stop-color="#020039"/><stop offset="1" stop-color="#090056"/></linearGradient><linearGradient id="AJ" x1="-1086.86" y1="21.71" x2="-1088.86" y2="83.05" xlink:href="#AI"/><linearGradient id="AK" x1="1463.32" y1="305.42" x2="1462.65" y2="364.09" xlink:href="#H"/><linearGradient id="AL" x1="-943.03" y1="193.33" x2="-1051.48" y2="283.46" xlink:href="#w"/><linearGradient id="AM" x1="-966.24" y1="165.4" x2="-1074.69" y2="255.53" xlink:href="#w"/><linearGradient id="AN" x1="271.18" y1="318.7" x2="502.89" y2="629.19" xlink:href="#a"/><linearGradient id="AO" x1="169.69" y1="612.74" x2="217.69" y2="741.74" xlink:href="#w"/><linearGradient id="AP" x1="2668.647" y1="6904.347" x2="2600.884" y2="6739.313" xlink:href="#a"/><linearGradient id="AQ" x1="266.99" y1="471.34" x2="250.99" y2="562.34" xlink:href="#w"/><linearGradient id="AR" x1="5514.331" y1="8679.96" x2="5415.231" y2="8532.02" xlink:href="#a"/><linearGradient id="AS" x1="7536.04" y1="5135.52" x2="7925.31" y2="5379.58" xlink:href="#a"/><linearGradient id="AT" x1="454.14" y1="652.73" x2="781.23" y2="968.25" xlink:href="#Db"><stop offset="0" stop-color="#fe7062"/><stop offset="1" stop-color="#ff928e"/></linearGradient><linearGradient id="AU" x1="286.29" y1="400.18" x2="301.28" y2="501.18" xlink:href="#w"/><linearGradient id="AV" x1="353.31" y1="453.04" x2="320.31" y2="611.03" xlink:href="#w"/><linearGradient id="AW" x1="337.911" y1="568.707" x2="266.668" y2="592.073" xlink:href="#H"/><linearGradient id="AX" x1="141.22" y1="602.14" x2="223.22" y2="544.14" xlink:href="#a"/><linearGradient id="AY" x1="743.013" y1="1466.125" x2="709.586" y2="1390.741" xlink:href="#w"/><linearGradient id="AZ" x1="237" y1="344.21" x2="468.71" y2="654.7" xlink:href="#a"/><linearGradient id="Aa" x1="760.456" y1="1458.392" x2="727.03" y2="1383.009" xlink:href="#w"/><linearGradient id="Ab" x1="1847.38" y1="1203.31" x2="1853.48" y2="1203.31" xlink:href="#H"/><linearGradient id="Ac" x1="1930.04" y1="1203.31" x2="1936.14" y2="1203.31" xlink:href="#H"/><linearGradient id="Ad" x1="1977.15" y1="1204.47" x2="2139.23" y2="1204.47" xlink:href="#H"/><linearGradient id="Ae" x1="1992.88" y1="1020.07" x2="1841.4" y2="1020.07" xlink:href="#H"/><linearGradient id="Af" x1="1904.36" y1="1077.11" x2="2007.1" y2="1077.11" xlink:href="#H"/><linearGradient id="Ag" x1="1937.06" y1="1146.51" x2="2033.7" y2="1146.51" xlink:href="#H"/><linearGradient id="Ah" x1="1965.77" y1="1215.9" x2="2062.41" y2="1215.9" xlink:href="#H"/><linearGradient id="Ai" x1="1992.82" y1="1285.29" x2="2095.56" y2="1285.29" xlink:href="#H"/><linearGradient id="Aj" x1="2021.93" y1="1354.69" x2="2124.66" y2="1354.69" xlink:href="#H"/><linearGradient id="Ak" x1="1807.42" y1="1316.42" x2="1839.11" y2="1316.42" xlink:href="#H"/><linearGradient id="Al" x1="1704.85" y1="1316.42" x2="1736.54" y2="1316.42" xlink:href="#H"/><linearGradient id="Am" x1="1703.64" y1="1233.81" x2="1840.41" y2="1233.81" xlink:href="#H"/><linearGradient id="An" x1="1337.37" y1="1386.7" x2="1362.81" y2="1226.71" xlink:href="#H"/><linearGradient id="Ao" x1="1347.53" y1="1388.32" x2="1372.97" y2="1228.32" xlink:href="#H"/><linearGradient id="Ap" x1="1335.06" y1="1274.09" x2="1404.56" y2="1176.79" xlink:href="#H"/><linearGradient id="Aq" x1="1253.26" y1="1284.18" x2="1226.26" y2="1463.18" xlink:href="#w"/><linearGradient id="Ar" x1="1269.33" y1="1339.36" x2="1257.02" y2="1528.07" xlink:href="#H"/><linearGradient id="As" x1="1339.46" y1="1169.39" x2="1288.46" y2="1217.39" xlink:href="#w"/><linearGradient id="At" x1="1228.83" y1="1198.44" x2="1426.65" y2="1198.44" xlink:href="#AT"/><linearGradient id="Au" x1="1150.56" y1="1331.61" x2="1138.25" y2="1520.33" xlink:href="#H"/><linearGradient id="Av" x1="837.58" y1="1239.81" x2="868.9" y2="1436.83" xlink:href="#H"/><linearGradient id="Aw" x1="849.77" y1="1391.81" x2="882.12" y2="1595.31" xlink:href="#H"/><linearGradient id="Ax" x1="873.3" y1="1389.54" x2="840.01" y2="1180.16" xlink:href="#H"/><linearGradient id="Ay" x1="523.08" y1="1327.71" x2="512.61" y2="1327.71" xlink:href="#AT"/><linearGradient id="Az" x1="471.96" y1="1383.14" x2="563.72" y2="1383.14" xlink:href="#AT"/><linearGradient id="BA" x1="458.34" y1="1262.03" x2="573.72" y2="1262.03" xlink:href="#AT"/><linearGradient id="BB" x1="606.15" y1="1283.53" x2="511.48" y2="1366.2" xlink:href="#w"/><linearGradient id="BC" x1="586.6" y1="1337" x2="597.56" y2="1505.01" xlink:href="#H"/><linearGradient id="BD" x1="657.06" y1="1127.03" x2="650.4" y2="1205.03" xlink:href="#w"/><linearGradient id="BE" x1="692.33" y1="1330.11" x2="703.29" y2="1498.12" xlink:href="#H"/><linearGradient id="BF" x1="446.55" y1="1180.98" x2="622.65" y2="1180.98" xlink:href="#a"/><linearGradient id="BG" x1="917.76" y1="1375.46" x2="878.43" y2="1460.79" xlink:href="#a"/><linearGradient id="BH" x1="891.98" y1="1353.75" x2="916.68" y2="1353.75" xlink:href="#Db"><stop offset="0" stop-color="#f9b776"/><stop offset="1" stop-color="#f47960"/></linearGradient><linearGradient id="BI" x1="857.8" y1="1288.4" x2="962.77" y2="1141.27" xlink:href="#a"/><linearGradient id="BJ" x1="932.32" y1="1337.1" x2="911.65" y2="1404.44" xlink:href="#a"/><linearGradient id="BK" x1="881.72" y1="1408" x2="948.14" y2="1408" xlink:href="#H"/><linearGradient id="BL" x1="874.12" y1="1376.55" x2="897.3" y2="1376.55" xlink:href="#BH"/><linearGradient id="BM" x1="819.96" y1="1361.71" x2="825.75" y2="1164.99" xlink:href="#a"/><linearGradient id="BN" x1="963.38" y1="1170.4" x2="906.35" y2="1081.13" xlink:href="#Db"><stop offset="0" stop-color="#fdf53f"/><stop offset="1" stop-color="#d93c65"/></linearGradient><linearGradient id="BO" x1="944.96" y1="1109.22" x2="1025.82" y2="1109.22" xlink:href="#BH"/><linearGradient id="BP" x1="985.09" y1="1011.97" x2="699.32" y2="1121.65" xlink:href="#AT"/><linearGradient id="BQ" x1="935.21" y1="946.83" x2="870.21" y2="1017.83" xlink:href="#w"/><linearGradient id="BR" x1="972.86" y1="980.11" x2="687.09" y2="1089.78" xlink:href="#AT"/><linearGradient id="BS" x1="756.99" y1="889.59" x2="790.97" y2="1048.7" xlink:href="#Db"><stop offset="0" stop-color="#e1473d"/><stop offset="1" stop-color="#e9605a"/></linearGradient><linearGradient id="BT" x1="831.21" y1="1110.19" x2="625.78" y2="1467.15" xlink:href="#BH"/><linearGradient id="BU" x1="589.112" y1="1674.98" x2="615.912" y2="1616.88" xlink:href="#w"/><linearGradient id="BV" x1="911.735" y1="906.289" x2="936.779" y2="1000.649" xlink:href="#a"/><linearGradient id="BW" x1="569.431" y1="1665.899" x2="596.231" y2="1607.799" xlink:href="#w"/><linearGradient id="BX" x1="514.85" y1="1154.72" x2="1648.17" y2="1154.72" xlink:href="#H"/><linearGradient id="BY" x1="713.47" y1="1114.86" x2="895.26" y2="1114.86" xlink:href="#H"/><filter id="BZ" x="755.7" y="1063.21" width="129.7" height="55.68" filterUnits="userSpaceOnUse" class="Dm"><feFlood class="Dn"/><feBlend in="SourceGraphic"/></filter><mask id="Ba" x="755.7" y="1063.21" width="129.7" height="55.68" maskUnits="userSpaceOnUse"><g mask="url(#B)" filter="url(#BZ)"><path class="D" d="M756 1094.19l47.2-27.79a6.23 6.23 0 0 1 1.76-.7c6.69-1.49 46.61-9.15 78.53 13a4.5 4.5 0 0 1 1.85 4.68l-7.42 33.8a2.22 2.22 0 0 1-3.49 1.31c-10.72-7.92-52.51-34.51-118.08-23.32a.51.51 0 0 1-.35-.98z" fill="url(#C)"/></g></mask><linearGradient id="Bb" x1="788.44" y1="1076.38" x2="971.35" y2="1121.93" xlink:href="#Db"><stop offset="0" stop-color="#fff"/></linearGradient><linearGradient id="Bc" x1="727.19" y1="1134.56" x2="889.13" y2="1134.56" xlink:href="#G"/><linearGradient id="Bd" x1="728.27" y1="1128.06" x2="887.04" y2="1128.06" xlink:href="#G"/><linearGradient id="Be" x1="726.3" y1="1140.18" x2="887.04" y2="1140.18" xlink:href="#G"/><linearGradient id="Bf" x1="1076.53" y1="1114.86" x2="894.74" y2="1114.86" xlink:href="#H"/><filter id="Bg" x="904.59" y="1063.21" width="129.7" height="55.68" filterUnits="userSpaceOnUse" class="Dm"><feFlood class="Dn"/><feBlend in="SourceGraphic"/></filter><mask id="Bh" x="904.59" y="1063.21" width="129.7" height="55.68" maskUnits="userSpaceOnUse"><g mask="url(#E)" filter="url(#Bg)"><path class="F" d="M1034 1094.19l-47.2-27.79a6.29 6.29 0 0 0-1.77-.7c-6.69-1.49-46.61-9.15-78.53 13a4.52 4.52 0 0 0-1.85 4.68l7.42 33.8a2.23 2.23 0 0 0 3.5 1.31c10.71-7.92 52.5-34.51 118.08-23.32a.52.52 0 0 0 .35-.98z" fill="url(#F)"/></g></mask><linearGradient id="Bi" x1="1001.55" x2="818.65" xlink:href="#Bb"/><linearGradient id="Bj" x1="902.95" y1="1128.06" x2="1061.73" y2="1128.06" xlink:href="#G"/><linearGradient id="Bk" x1="902.95" y1="1140.18" x2="1063.69" y2="1140.18" xlink:href="#G"/><linearGradient id="Bl" x1="1276.84" y1="1131.78" x2="1269.5" y2="1198.11" xlink:href="#a"/><linearGradient id="Bm" x1="1122.79" y1="1158.23" x2="1219.79" y2="1034.23" xlink:href="#a"/><linearGradient id="Bn" x1="1177.26" y1="1060.17" x2="1143.64" y2="1110.8" xlink:href="#H"/><linearGradient id="Bo" x1="1427.67" y1="933.38" x2="1360.05" y2="999.52" xlink:href="#a"/><linearGradient id="Bp" x1="1314.71" y1="1013.52" x2="1408.53" y2="1217.73" xlink:href="#AT"/><linearGradient id="Bq" x1="1304.35" y1="940.49" x2="1319.35" y2="1054.49" xlink:href="#w"/><linearGradient id="Br" x1="1356.44" y1="887.55" x2="1309.44" y2="931.55" xlink:href="#w"/><linearGradient id="Bs" x1="1368.19" y1="872.51" x2="1300.48" y2="938.75" xlink:href="#a"/><linearGradient id="Bt" x1="1366.77" y1="902.17" x2="1319.77" y2="946.17" xlink:href="#w"/><linearGradient id="Bu" x1="1366.87" y1="990.26" x2="1352.87" y2="1090.26" xlink:href="#w"/><linearGradient id="Bv" x1="14785.416" y1="-13015.234" x2="14567.709" y2="-12782.463" xlink:href="#a"/><linearGradient id="Bw" x1="-16912.287" y1="-4952.248" x2="-16609.498" y2="-4853.214" xlink:href="#a"/><linearGradient id="Bx" x1="1624.46" y1="1380.76" x2="1636.46" y2="1473.43" xlink:href="#H"/><linearGradient id="By" x1="1602.82" y1="1228.47" x2="1624.63" y2="1379.18" xlink:href="#H"/><linearGradient id="Bz" x1="1660.34" y1="1357.93" x2="1638.74" y2="1357.93" xlink:href="#w"/><linearGradient id="CA" x1="1510.59" y1="1395.51" x2="1522.59" y2="1488.17" xlink:href="#H"/><linearGradient id="CB" x1="1494.77" y1="1244.11" x2="1516.58" y2="1394.82" xlink:href="#H"/><linearGradient id="CC" x1="1692.96" y1="1208.96" x2="1720.96" y2="1336.96" xlink:href="#a"/><linearGradient id="CD" x1="1558.03" y1="1359.75" x2="1532.24" y2="1359.75" xlink:href="#w"/><linearGradient id="CE" x1="1720.52" y1="1032.66" x2="1706.52" y2="1126" xlink:href="#a"/><linearGradient id="CF" x1="1679.87" y1="1019.96" x2="1697.2" y2="949.29" xlink:href="#w"/><linearGradient id="CG" x1="1771.4" y1="1070.22" x2="1589.12" y2="1267.94" xlink:href="#AT"/><linearGradient id="CH" x1="1802" y1="977.37" x2="1608.39" y2="1131.85" xlink:href="#BS"/><linearGradient id="CI" x1="1592.65" y1="1121.02" x2="1533.08" y2="1121.02" xlink:href="#w"/><linearGradient id="CJ" x1="-6150.09" y1="1371.49" x2="-6134.09" y2="1300.16" gradientTransform="matrix(-0.67, 0.75, 0.75, 0.67, -2762.05, 5028.12)" xlink:href="#w"/><linearGradient id="CK" x1="1714.25" y1="881.3" x2="1625.31" y2="956.14" xlink:href="#a"/><linearGradient id="CL" x1="-6170.7" y1="1366.87" x2="-6154.7" y2="1295.54" gradientTransform="matrix(-0.67, 0.75, 0.75, 0.67, -2762.05, 5028.12)" xlink:href="#w"/><linearGradient id="CM" x1="626.07" y1="1183.11" x2="632.53" y2="1124.09" xlink:href="#H"/><linearGradient id="CN" x1="-723.8" y1="-459.59" x2="-407.67" y2="-85.56" xlink:href="#a"/><linearGradient id="CO" x1="530.34" y1="1098.74" x2="476.34" y2="1175.41" xlink:href="#AT"/><linearGradient id="CP" x1="595.6" y1="943.42" x2="566.27" y2="1026.08" xlink:href="#w"/><linearGradient id="CQ" x1="-762.8" y1="-103.19" x2="-744.14" y2="-53.19" gradientTransform="matrix(-1, -0.06, -0.06, 1, 50.89, 505)" xlink:href="#w"/><linearGradient id="CR" x1="-455.8" y1="-464.076" x2="-162.112" y2="-71.078" xlink:href="#a"/><linearGradient id="CS" x1="-552.51" y1="762.95" x2="-533.84" y2="812.95" gradientTransform="matrix(-0.91, 0.41, 0.41, 0.91, -243.85, 351.22)" xlink:href="#w"/><linearGradient id="CT" x1="554.91" y1="1049.28" x2="596.62" y2="1291.8" xlink:href="#H"/><linearGradient id="CU" x1="606.943" y1="1138.522" x2="636.946" y2="1151.558" xlink:href="#Db"><stop offset="0" stop-color="#2b3582"/><stop offset="1" stop-color="#150e42"/></linearGradient><linearGradient id="CV" x1="654.96" y1="1051.56" x2="638.29" y2="1089.56" xlink:href="#w"/><linearGradient id="CW" x1="455.75" y1="1093.7" x2="682.44" y2="1151.29" xlink:href="#w"/><linearGradient id="CX" x1="1648.04" y1="583.05" x2="738.81" y2="1424.24" xlink:href="#AT"/><linearGradient id="CY" x1="1400.21" y1="568.54" x2="1925.66" y2="568.54" xlink:href="#w"/><linearGradient id="CZ" x1="1644.761" y1="219.834" x2="1646.132" y2="710.812" xlink:href="#w"/><linearGradient id="Ca" x1="1506.676" y1="568.641" x2="1509.756" y2="568.65" xlink:href="#w"/><linearGradient id="Cb" x1="1817.498" y1="567.607" x2="1820.568" y2="567.617" xlink:href="#w"/><linearGradient id="Cc" x1="1716.239" y1="567.599" x2="1719.319" y2="567.609" xlink:href="#w"/><linearGradient id="Cd" x1="1611.149" y1="567.599" x2="1614.219" y2="567.609" xlink:href="#w"/><linearGradient id="Ce" x1="1517.8" y1="98.65" x2="1487.8" y2="292.14" xlink:href="#w"/><linearGradient id="Cf" x1="1522.9" y1="99.44" x2="1492.9" y2="292.93" xlink:href="#w"/><linearGradient id="Cg" x1="1528.29" y1="100.27" x2="1498.29" y2="293.77" xlink:href="#w"/><linearGradient id="Ch" x1="1534.49" y1="101.24" x2="1504.49" y2="294.73" xlink:href="#w"/><linearGradient id="Ci" x1="1544.98" y1="102.86" x2="1514.98" y2="296.35" xlink:href="#w"/><linearGradient id="Cj" x1="1618.67" y1="114.29" x2="1588.67" y2="307.78" xlink:href="#w"/><linearGradient id="Ck" x1="1623.76" y1="115.08" x2="1593.77" y2="308.57" xlink:href="#w"/><linearGradient id="Cl" x1="1635.36" y1="116.88" x2="1605.36" y2="310.37" xlink:href="#w"/><linearGradient id="Cm" x1="1640.46" y1="117.66" x2="1610.46" y2="311.16" xlink:href="#w"/><linearGradient id="Cn" x1="1645.85" y1="118.5" x2="1615.85" y2="311.99" xlink:href="#w"/><linearGradient id="Co" x1="1721.86" y1="130.29" x2="1691.86" y2="323.78" xlink:href="#w"/><linearGradient id="Cp" x1="1726.95" y1="131.07" x2="1696.96" y2="324.57" xlink:href="#w"/><linearGradient id="Cq" x1="1732.35" y1="131.91" x2="1702.35" y2="325.4" xlink:href="#w"/><linearGradient id="Cr" x1="1743.65" y1="133.66" x2="1713.65" y2="327.15" xlink:href="#w"/><linearGradient id="Cs" x1="1749.04" y1="134.5" x2="1719.04" y2="327.99" xlink:href="#w"/><linearGradient id="Ct" x1="1821.46" y1="145.73" x2="1791.46" y2="339.22" xlink:href="#w"/><linearGradient id="Cu" x1="1831.95" y1="147.36" x2="1801.95" y2="340.85" xlink:href="#w"/><linearGradient id="Cv" x1="1838.15" y1="148.32" x2="1808.16" y2="341.81" xlink:href="#w"/><linearGradient id="Cw" x1="1843.25" y1="149.11" x2="1813.25" y2="342.6" xlink:href="#w"/><linearGradient id="Cx" x1="1848.64" y1="149.94" x2="1818.64" y2="343.43" xlink:href="#w"/><linearGradient id="Cy" x1="1922.06" y1="161.33" x2="1892.07" y2="354.82" xlink:href="#w"/><linearGradient id="Cz" x1="1927.16" y1="162.11" x2="1897.16" y2="355.6" xlink:href="#w"/><linearGradient id="DA" x1="1938.75" y1="163.91" x2="1908.76" y2="357.4" xlink:href="#w"/><linearGradient id="DB" x1="1949.24" y1="165.54" x2="1919.25" y2="359.03" xlink:href="#w"/><linearGradient id="DC" x1="1740.22" y1="299.32" x2="1602.55" y2="482.13" xlink:href="#BS"/><linearGradient id="DD" x1="1790.69" y1="196.23" x2="1665.04" y2="363.07" xlink:href="#BS"/><linearGradient id="DE" x1="1524.76" y1="282.77" x2="1388.99" y2="570.37" xlink:href="#BS"/><linearGradient id="DF" x1="1630.24" y1="282.77" x2="1494.47" y2="570.37" xlink:href="#BS"/><linearGradient id="DG" x1="1734.64" y1="282.77" x2="1598.88" y2="570.37" xlink:href="#BS"/><linearGradient id="DH" x1="1630.24" y1="282.77" x2="1494.48" y2="570.37" xlink:href="#BS"/><linearGradient id="DI" x1="1754.18" y1="546.18" x2="1868.5" y2="735.67" xlink:href="#Db"><stop offset="0" stop-color="#a22b25"/><stop offset="1" stop-color="#c0423c"/></linearGradient><linearGradient id="DJ" x1="1791.62" y1="544.29" x2="1770.12" y2="617.79" xlink:href="#DI"/><linearGradient id="DK" x1="1856.38" y1="979.66" x2="2009.13" y2="1145.81" xlink:href="#a"/><linearGradient id="DL" x1="1905.96" y1="992" x2="1892.39" y2="992" xlink:href="#DI"/><linearGradient id="DM" x1="1844.35" y1="791.76" x2="1974.33" y2="967.93" xlink:href="#a"/><linearGradient id="DN" x1="1890.65" y1="948.15" x2="2043.4" y2="1114.3" xlink:href="#a"/><linearGradient id="DO" x1="1954.86" y1="991.3" x2="1943.14" y2="991.3" xlink:href="#DI"/><linearGradient id="DP" x1="1867.52" y1="774.67" x2="1997.49" y2="950.83" xlink:href="#a"/><linearGradient id="DQ" x1="4447.91" y1="-2480.49" x2="4222.34" y2="-2196.22" xlink:href="#H"/><linearGradient id="DR" x1="1761.56" y1="541.73" x2="1875.87" y2="731.23" xlink:href="#DI"/><linearGradient id="DS" x1="4477.23" y1="-2457.22" x2="4251.67" y2="-2172.94" xlink:href="#H"/><linearGradient id="DT" x1="1911.01" y1="602.7" x2="1923.01" y2="681.2" xlink:href="#DI"/><linearGradient id="DU" x1="1504.26" y1="473.61" x2="1485.76" y2="519.61" gradientTransform="matrix(-0.75, -0.67, -0.67, 0.75, 4372.63, -1588.84)" xlink:href="#DI"/><linearGradient id="DV" x1="368.13" y1="3225.97" x2="378.98" y2="3287.8" gradientTransform="matrix(-0.75, -0.67, -0.67, 0.75, 4372.63, -1588.84)" xlink:href="#a"/><linearGradient id="DW" x1="1491.21" y1="468.37" x2="1472.71" y2="514.37" gradientTransform="matrix(-0.75, -0.67, -0.67, 0.75, 4372.63, -1588.84)" xlink:href="#DI"/><linearGradient id="DX" x1="1972.2" y1="720.68" x2="2057.68" y2="941.07" xlink:href="#DI"/><linearGradient id="DY" x1="1942.29" y1="732.28" x2="2027.77" y2="952.67" xlink:href="#DI"/><path id="DZ" d="M2136.18 1391a3 3 0 0 0 2.81-4.25l-156-366.92a3.05 3.05 0 0 0-5.62 2.39l156 366.92a3 3 0 0 0 2.81 1.86z"/><path id="Da" d="M1540.23 420.38h43.55a2.25 2.25 0 0 1 2.25 2.25v14a10.32 10.32 0 0 1-10.32 10.37h-32.22a10.32 10.32 0 0 1-10.32-10.32v-9.21a7.05 7.05 0 0 1 7.06-7.09z"/><linearGradient id="Db" gradientUnits="userSpaceOnUse"/></defs><path d="M583.85 49c-30.23 16.59-84.74 55-132.3 112.35-35.39 42.66-48.05 70-80.9 76.88-24.08 5-51.2-4.09-88.41-24.4-79.6-43.46-173.12-14.26-240.8 101.44S-.71 540.58 124.22 670.4c91.42 95-31.52 96-102.6 260.68s29.16 349.34 359 347.14l829.51 2c260.75 2.2 542.07 42.64 784.46-71.19 87.59-41.14 165-104.58 208-186.25 56.76-107.85 37.8-243.36-37.21-340.4-50-64.69-122-46.06-182-88.63-62.63-44.44-100.3-92.69-10.76-171.78s158.09-132.38 112.83-237.17c-65-150.33-222.55-169.73-395.71-106s-382.04 158.92-536.32 117.46C995.57 153.85 980.11 39.34 787.12 19.83 744.21 15.49 660.39 7 583.85 49z" fill="url(#G)"/><path d="M2213.92 705.6c13.19 65.43 74.44 449.33-275.48 571.51 0 0-105.38-242.36 266.19-574.61a5.64 5.64 0 0 1 9.29 3.1z" class="Dh"/><path d="M2185.89 766.3c-3.35 22.28-7.64 44.32-12.33 66.31s-10 43.84-15.77 65.56-12.16 43.29-19.08 64.69l-5.29 16-5.53 15.94-11.87 31.59c-4 10.51-8.49 20.84-12.86 31.21l-6.91 15.41c-2.25 5.16-4.83 10.18-7.23 15.27a651.44 651.44 0 0 1-32.27 59.39l-4.4 7.23-11.64 17.67-2.47 3.44-9.9 13.75-10.52 13.3a385 385 0 0 1-47.27 48.71 3.46 3.46 0 1 1-4.49-5.26h0a379.18 379.18 0 0 0 46.75-47.47l10.46-13 9.88-13.5 2.46-3.38 2.33-3.48 4.66-6.95 4.65-7 4.41-7.12a651.11 651.11 0 0 0 32.44-58.66l7.29-15.11 7-15.27 13-31c4.25-10.36 8.11-20.88 12-31.36l5.62-15.83c1.9-5.27 3.59-10.61 5.4-15.92q10.57-31.89 19.48-64.34 8.91-32.45 16.21-65.26c4.84-21.88 9.3-43.9 12.78-66h0a1.47 1.47 0 0 1 2.9.45z" class="Di Dl"/><path d="M2268.86 1024.67c-10.41 46.81-81.2 316.46-325 288 0 0 4.72-190.87 320.31-292.93 2.76-.87 5.37 1.87 4.69 4.93z" class="Dj"/><path d="M2235.51,1055.82c-8,12.9-16.5,25.43-25.17,37.85s-17.65,24.62-26.86,36.66-18.69,23.85-28.43,35.45-19.75,23-30.11,34.09-21,22-32,32.35-22.39,20.55-34.31,30c-23.68,19.06-49.33,36-77.37,48.51a3.46,3.46,0,1,1-2.82-6.33h0l.06,0c27.4-11.85,52.83-28.22,76.43-46.79,11.88-9.22,23.2-19.15,34.28-29.34s21.74-20.86,32.15-31.76,20.5-22.12,30.32-33.57,19.39-23.12,28.71-35,18.37-24,27.16-36.23,17.38-24.72,25.48-37.41v0a1.46,1.46,0,0,1,2.48,1.56Z" class="Di Dl"/><path d="M16.92 436.75C15.88 504 24.63 895 366.55 935.59c0 0 55.72-262-341.62-504-3.48-2.12-7.93.77-8.01 5.16z" class="Dj"/><path d="M56 488.9c6.89 20 14.57 39.76 22.54 59.37s16.42 39.05 25.22 58.31 18.07 38.31 27.74 57.14 19.74 37.45 30.4 55.72 21.68 36.33 33.5 53.85 24 34.79 37.21 51.25c3.2 4.19 6.59 8.23 10 12.26s6.67 8.17 10.25 12l10.55 11.76 11 11.36a433.91 433.91 0 0 0 47.33 41.47h.05a4.27 4.27 0 0 1-5.12 6.84h0c-34.15-26.12-63.62-57.55-89.72-91.23-13.19-16.77-25.33-34.29-37-52.07s-22.66-36-33.19-54.51-20.49-37.27-30-56.28S108 628 99.29 608.58s-16.91-39-24.73-58.73-15.3-39.62-22.05-59.85a1.81 1.81 0 0 1 3.42-1.17z" class="Di Dl"/><path d="M471.87 2.71c-36.6 57.91-235.82 403.61 55 648.83 0 0 189.75-193.82-44.95-648.42a5.8 5.8 0 0 0-10.05-.41z" class="Dj"/><path d="M479.18 71.69c-3.41 21.58-6.39 43.26-9.17 64.94l-7.57 65.15c-4.55 43.49-8.12 87.08-10.34 130.74s-3.11 87.37-1.65 131q1 32.73 4.41 65.28a547 547 0 0 0 10.34 64.43h0a2.81 2.81 0 0 1-5.48 1.25h0a555.47 555.47 0 0 1-10.05-65.15q-3.26-32.78-4-65.67c-1.21-43.83 0-87.66 2.45-131.38s6.35-87.35 11.16-130.86q3.62-32.64 8-65.17l9.59-65a1.2 1.2 0 0 1 2.36.38z" class="Di Dl"/><path d="M217.89 66.57C197.12 150.79 96.24 645.85 543.79 824c0 0 150.31-308.81-313.66-760.9a7.34 7.34 0 0 0-12.24 3.47z" class="Dh"/><path d="M254 146.63c3.27 28.93 7.76 57.77 12.8 86.47s10.84 57.3 17.31 85.72c13 56.83 28.63 113.07 47.91 168.05s42.24 108.72 70.74 159.46c7.08 12.7 14.64 25.13 22.51 37.34s16.18 24.15 24.93 35.73a469 469 0 0 0 58.23 64.49h0a2.81 2.81 0 0 1-3.8 4.14h0a474.24 474.24 0 0 1-58.63-65.5q-13.17-17.6-25-36.15c-7.87-12.34-15.42-24.89-22.49-37.7-28.44-51.19-51.18-105.3-70.32-160.49S293.72 376.51 281 319.52q-9.53-42.75-16.94-85.94c-4.92-28.78-9.28-57.65-12.43-86.71a1.19 1.19 0 1 1 2.37-.26z" class="Di Dl"/><g class="Dk"><path d="M58.14,1008v10.55c0,1.82,1.45,3.54,4,4.73l2.5,1.17c2,1,1.61,2.74-.82,3.39h0c-1.61.42-1.91,1.6-.57,2.24l3.14,1.52c2,1,2.06,2.75,0,3.74l-2.26,1.1c-1.94.95-1.89,2.62.12,3.52l2.42,1.1c1.69.76,2,2.11.64,3L66,1045a3,3,0,0,0-1.47,2.38v16.67H393.07V1007Z"/><path d="M58.14,1063.83v38.86c0,6.67,1.45,13,4,17.37l2.5,4.31c2,3.54,1.61,10.12-.82,12.48h0c-1.61,1.57-1.91,5.89-.57,8.27l3.14,5.6c2,3.66,2.06,10.08,0,13.76l-2.26,4c-1.94,3.49-1.89,9.62.12,13l2.42,4c1.69,2.8,2,7.75.64,11.23L66,1200.25a25,25,0,0,0-1.47,8.74v61.36H393.07V1060.14Z"/></g><path d="M405.4 1069.17H57.11a5.08 5.08 0 0 1-5.07-5.08h0a5.08 5.08 0 0 1 5.07-5.08H405.4a5.08 5.08 0 0 1 5.08 5.08h0a5.08 5.08 0 0 1-5.08 5.08z" fill="url(#H)"/><path d="M405.4 1274.86H57.11a5.08 5.08 0 0 1-5.07-5.08h0a5.07 5.07 0 0 1 5.07-5.08H405.4a5.07 5.07 0 0 1 5.08 5.08h0a5.08 5.08 0 0 1-5.08 5.08z" fill="url(#I)"/><path d="M58.14,903.53V923a11.49,11.49,0,0,0,4,8.69l2.5,2.16a3.77,3.77,0,0,1-.82,6.24h0a2.5,2.5,0,0,0-.57,4.13l3.14,2.8a4.63,4.63,0,0,1,0,6.89l-2.26,2a4.28,4.28,0,0,0,.12,6.48l2.42,2a4.07,4.07,0,0,1,.64,5.61L66,971.76a7.17,7.17,0,0,0-1.47,4.37v30.68H393.07V901.68Z" class="Dh"/><path d="M399 905.14H50.74a5.08 5.08 0 0 1-5.08-5.08h0a5.07 5.07 0 0 1 5.08-5.06H399a5.07 5.07 0 0 1 5.08 5.08h0a5.08 5.08 0 0 1-5.08 5.06z" fill="url(#J)"/><path d="M405.4 1012.88H57.11a5.07 5.07 0 0 1-5.07-5.07h0a5.07 5.07 0 0 1 5.07-5.08H405.4a5.07 5.07 0 0 1 5.08 5.08h0a5.07 5.07 0 0 1-5.08 5.07z" fill="url(#K)"/><path d="M381.68 926h-312a1.23 1.23 0 1 1 0-2.46h312a1.23 1.23 0 1 1 0 2.46zm0 18.33H77.05a1.23 1.23 0 1 1 0-2.46h304.63a1.23 1.23 0 0 1 0 2.46zm0 13.47H80.83a1.23 1.23 0 0 1 0-2.46h300.85a1.23 1.23 0 0 1 0 2.46z" class="Dk"/><path d="M302.09 1108H686.8V996.5H302.09c8.23 0 8.23 111.5 0 111.5z" class="Dh"/><path d="M686.8 1080.09v-51c0-18-7.6-32.57-17-32.57H303.71c-7.38 0-13.35-8.66-13.35-19.34 0-3.24 1.81-5.87 4.05-5.87h400.14c9.17 0 23.74 20.89 23.74 46.66v71.25c0 24.3-14.14 44-22.79 44h-399c-3.41 0-6.16-4-6.16-8.93 0-9 5-16.28 11.24-16.28h370.68c8.03-.01 14.54-12.51 14.54-27.92z" fill="url(#L)"/><path d="M676.13,1020.6H315.41a1.23,1.23,0,1,1,0-2.46H676.13a1.23,1.23,0,0,1,0,2.46Z" fill="url(#M)"/><path d="M676.13,1037.15H315.41a1.23,1.23,0,0,1,0-2.46H676.13a1.23,1.23,0,1,1,0,2.46Z" fill="url(#N)"/><path d="M676.13,1053.7H315.41a1.23,1.23,0,0,1,0-2.46H676.13a1.23,1.23,0,0,1,0,2.46Z" fill="url(#O)"/><path d="M676.13,1070.25H315.41a1.23,1.23,0,0,1,0-2.46H676.13a1.23,1.23,0,1,1,0,2.46Z" fill="url(#P)"/><path d="M676.13,1086.8H315.41a1.23,1.23,0,0,1,0-2.46H676.13a1.23,1.23,0,0,1,0,2.46Z" fill="url(#Q)"/><path d="M325.75 1133.2h399.33a20.09 20.09 0 0 1 20.09 20.09V1261a20.1 20.1 0 0 1-20.1 20.1H325.75a20.1 20.1 0 0 1-20.1-20.1v-107.71a20.09 20.09 0 0 1 20.1-20.09z" fill="url(#R)"/><rect x="355.33" y="1150.19" width="51.63" height="113.87" rx="7.24" class="Dk"/><rect x="276.01" y="852.04" width="439.52" height="120.56" rx="20.09" fill="url(#S)"/><path d="M242,777.56v13.61c0,2.34,1.45,4.56,4,6.09l2.49,1.51c2.05,1.24,1.62,3.54-.82,4.37h0c-1.6.55-1.9,2.06-.57,2.89l3.14,2c2.06,1.28,2.06,3.53,0,4.82L248,814.23c-2,1.23-1.89,3.37.12,4.54l2.42,1.42c1.68,1,2,2.71.64,3.93l-1.34,1.23a4.21,4.21,0,0,0-1.47,3.06v21.5H576.94V776.26Z" class="Dh"/><path d="M584.42 778.68H233.09a3.56 3.56 0 0 1-3.56-3.55h0a3.56 3.56 0 0 1 3.56-3.56h351.33a3.56 3.56 0 0 1 3.56 3.56h0a3.56 3.56 0 0 1-3.56 3.55z" fill="url(#T)"/><path d="M590.8 854.16H239.47a3.56 3.56 0 0 1-3.56-3.56h0a3.55 3.55 0 0 1 3.56-3.55H590.8a3.55 3.55 0 0 1 3.55 3.55h0a3.55 3.55 0 0 1-3.55 3.56z" fill="url(#U)"/><path d="M565.56 793.32h-312c-.68 0-1.24-.39-1.24-.86s.56-.87 1.24-.87h312c.68 0 1.23.39 1.23.87s-.55.86-1.23.86z" fill="url(#V)"/><path d="M565.56 806.14H260.92c-.68 0-1.23-.39-1.23-.86s.55-.87 1.23-.87h304.64c.68 0 1.23.39 1.23.87s-.55.86-1.23.86z" fill="url(#W)"/><path d="M565.56 815.58H264.71c-.68 0-1.23-.39-1.23-.87s.55-.86 1.23-.86h300.85c.68 0 1.23.39 1.23.86s-.55.87-1.23.87z" fill="url(#X)"/><path d="M229.15,661.68s28.81,66,3.94,106.84H362.32V658Z" class="Dh"/><path d="M319.51 645.68h425.13a29.87 29.87 0 0 1 29.87 29.87v64.54a31.72 31.72 0 0 1-31.73 31.73H325.47a5.24 5.24 0 0 1-4-8.59h0a5.23 5.23 0 0 0 1.21-3.43l-1.21-77.24a5.28 5.28 0 0 0-.14-1.12l-6.9-29.32a5.24 5.24 0 0 1 5.08-6.44z" fill="url(#Y)"/><g class="Dk"><path d="M222.92 652.92l1.23 5.42a7.23 7.23 0 0 0 7.17 5.62l76.14-1.38a8.53 8.53 0 0 1 8.57 7.08c2.71 15.68 8.23 54 4 85.48a7.57 7.57 0 0 1-7.48 6.6h-76.3a5.15 5.15 0 0 0-5.11 5.8h0a4.89 4.89 0 0 0 4.85 4.28h83.49a8.93 8.93 0 0 0 8.77-7.18c4-19.87 13-76.28-3.86-110.24a15.8 15.8 0 0 0-14.34-8.64l-82.05.72a5.26 5.26 0 0 0-5.08 6.44z"/><rect x="354.06" y="666.55" width="48.04" height="92.85" rx="7.24"/></g><circle cx="679.4" cy="711.16" r="41.5" fill="url(#Z)"/><path d="M1298.31 308.17l-3.58 1.54-4.26-1.54H521.93V1329.6h732c244.58-9.46 526.61 7.32 781.92 7.32l12.83-1028.75z" fill="url(#a)"/><path d="M548.55,286.78c303.14-11,448.17-87.92,746.83,20.79,194-85.82,439.08-27.89,728.86-18.28V1319.43c-238.46-18.65-473.35-9.12-709.72,0-237.21-25.89-494.8-22.65-766,0Z" fill="url(#b)"/><path d="M1280.23,304.87c-282.53-98.91-425.46-25.28-718-14.55V1315.79c253.28-21.34,494.5-25.31,718-3.68Z" class="Dj"/><path d="M1312.09 305.71v1009.66l4 .42c234.74-9 468-18.5 704.86 0V293.86c-280.37-9.29-518.56-64.05-708.86 11.85z" class="Dh"/><path d="M1294.06 1319.84l730.18-.41v-27.67c-406.72-26.5-712.15-50.25-730.18 28.08z" fill="url(#c)"/><path d="M1294.06 1319.84l-745.73-.92v-27.66c406.72-26.51 738.07-38.56 745.73 28.58z" fill="url(#d)"/><path d="M1250.1,1319.84c3.28,2.47,2.37,5.77,2.37,9.27h0a20.33,20.33,0,0,0,20.27,20.27h42.64a20.33,20.33,0,0,0,20.27-20.27h0c0-3.5-.91-6.8-7.34-9.27Z" fill="url(#e)"/><ellipse cx="1293.63" cy="1316.41" rx="22.93" ry="11.45" fill="url(#f)"/><path d="M1228.94,357.65a2.24,2.24,0,0,1-.67-.11C1084.18,307.27,842.68,332,609.14,356l-16.09,1.65a2.06,2.06,0,1,1-.42-4.1l16.08-1.65c116.93-12,237.83-24.39,345.13-27.23,120.51-3.2,210.71,6.28,275.78,29a2.06,2.06,0,0,1-.68,4Z" fill="url(#g)"/><path d="M1220.3,405.15a2,2,0,0,1-.68-.11c-144.09-50.27-385.59-25.5-619.14-1.55l-16.08,1.65a2.06,2.06,0,1,1-.42-4.09l16.08-1.65C717,387.4,837.89,375,945.19,372.16c120.5-3.2,210.72,6.29,275.79,29a2.06,2.06,0,0,1-.68,4Z" fill="url(#h)"/><path d="M1220.3,454.14a2,2,0,0,1-.68-.11c-144.09-50.27-385.58-25.5-619.13-1.55l-16.09,1.65A2.06,2.06,0,1,1,584,450l16.09-1.64C717,436.39,837.9,424,945.2,421.15c120.5-3.2,210.71,6.29,275.78,29a2.06,2.06,0,0,1-.68,4Z" fill="url(#i)"/><path d="M1225.81,496.2a2,2,0,0,1-.68-.11C1081,445.82,839.54,470.59,606,494.54l-16.09,1.65a2.06,2.06,0,0,1-.42-4.1l16.09-1.64c116.92-12,237.83-24.4,345.13-27.24,120.5-3.2,210.71,6.29,275.78,29a2.06,2.06,0,0,1-.68,4Z" fill="url(#j)"/><path d="M1224.62,536a2.06,2.06,0,0,1-.68-.11c-60.39-21.07-142.16-30.63-250-29.25a2.09,2.09,0,0,1-2.09-2,2.06,2.06,0,0,1,2-2.09c108.31-1.4,190.54,8.25,251.39,29.48a2.06,2.06,0,0,1-.68,4Z" fill="url(#k)"/><path d="M588.51 536a2.06 2.06 0 0 1-.2-4.11l16-1.63 158.77-15.55a2.06 2.06 0 0 1 .36 4.1l-174.71 17.18z" fill="url(#l)"/><path d="M1216,583.54a2,2,0,0,1-.68-.12c-58.13-20.28-135.8-29.89-237.42-29.36h0a2.06,2.06,0,0,1,0-4.12c102.1-.54,180.21,9.15,238.79,29.59a2.06,2.06,0,0,1-.67,4Z" fill="url(#m)"/><path d="M579.87 583.54a2.06 2.06 0 0 1-.21-4.11l16.17-1.66 156.55-15.35a2.06 2.06 0 1 1 .37 4.1l-156.5 15.35-16.17 1.65z" fill="url(#n)"/><path d="M1216,632.52a2,2,0,0,1-.68-.11c-58.13-20.28-135.8-29.9-237.42-29.36h0a2.06,2.06,0,0,1,0-4.12c102.11-.52,180.21,9.15,238.79,29.59a2.06,2.06,0,0,1-.67,4Z" fill="url(#o)"/><path d="M579.87 632.52a2.06 2.06 0 0 1-.21-4.1l16.05-1.65 152.92-15a2.06 2.06 0 0 1 .36 4.1l-152.86 15-16 1.64z" fill="url(#p)"/><path d="M1221.49,674.58a2,2,0,0,1-.68-.11c-59.13-20.63-138.57-30.23-242.92-29.32a2.06,2.06,0,0,1,0-4.12c104.81-.9,184.73,8.76,244.31,29.55a2.06,2.06,0,0,1-.67,4Z" fill="url(#q)"/><path d="M585.38 674.58a2.06 2.06 0 0 1-.21-4.1l16.14-1.66 151.07-14.86a2.06 2.06 0 1 1 .37 4.1l-167.14 16.51z" fill="url(#r)"/><path d="M1417.51 142.07l69-11a7.49 7.49 0 0 1 8.68 7.54l-2.51 137.84a3.22 3.22 0 0 1-3.58 3.14l-73.3-8.31a3.23 3.23 0 0 1-2.86-3.25l1.88-122.79a3.21 3.21 0 0 1 2.69-3.17z" fill="url(#s)"/><path d="M1417.37 144.86l70-11.34a4.57 4.57 0 0 1 5.28 4.64l-2.5 138.31a3.13 3.13 0 0 1-3.46 3.07l-71-8.14a3.15 3.15 0 0 1-2.77-3.18l1.82-120.3a3.14 3.14 0 0 1 2.63-3.06z" class="Dj"/><path d="M1420,271.73l-6.63-.83a1.35,1.35,0,0,1-1.35-1.36l2.35-125.8a1.28,1.28,0,0,1,1.31-1.25l5.26.19Z" fill="url(#t)"/><path d="M1821.64 131.77v-1.46a4.08 4.08 0 0 1 1.49-3.11c5.46-4.49 25.84-19.84 53.89-23.7a3.49 3.49 0 0 1 3.47 1.63 73.36 73.36 0 0 0-9.7 1.56c-13.9 3.03-34.32 11.79-49.15 25.08z" fill="url(#u)"/><path d="M1870.8 106.69a73.36 73.36 0 0 1 9.7-1.56 3.52 3.52 0 0 1-.08 3.87 24.42 24.42 0 0 1-1.79 2.31c-4.59 5.27-41.34 39.87-41.34 39.87s-11.23.89-14.56-1.24c-1.08-.69-1.13-12.31-1.09-18.17 14.83-13.29 35.25-22.05 49.16-25.08z" fill="url(#v)"/><path d="M1821.37,169.34l.92-21.51a4.21,4.21,0,0,1,3.07-3.89c2.7-.75,6.84-1.37,10.51.19a6.07,6.07,0,0,1,3.63,5.39l.74,20.16Z" fill="url(#w)"/><path d="M1907.5 154a4.36 4.36 0 0 1 1.48-2c4.48 1.09 13.77 4 32.75 11.61 22 8.84 28.24 16 30 19.77-9.69 2.39-31.62 5.75-62.56-1.69l-6-3.15s1-15.1 4.33-24.54z" fill="url(#x)"/><path d="M1941.73 163.53c-19-7.63-28.27-10.52-32.75-11.61a4.38 4.38 0 0 1 3.73-.76c11 2.78 44.17 12.11 61.08 27.06a2.82 2.82 0 0 1-1.13 4.84l-1 .24c-1.66-3.76-7.93-10.93-29.93-19.77z" fill="url(#y)"/><path d="M1891,191l13.8-15.17a4.89,4.89,0,0,1,5.32-1.29,18.05,18.05,0,0,1,7.38,5.38,4.45,4.45,0,0,1,.43,5.08l-10.34,18.1Z" fill="url(#z)"/><path d="M1843.42 162.78s-15.89-3.76-24.91-1.07c0 0-14.73 69.81-13.69 92.51l34.31 8.52 4.29-99.96z" fill="url(#AA)"/><path d="M1696.08 279.89s112.91 11.2 159 10a12.68 12.68 0 0 0 10.8-6.55l45.59-82.7s-11.56-10.54-20.36-12.3c0 0-43.92 44.84-46.69 68.55 0 0-95.88-32.08-105.48-32.23s-39.57 11.72-39.57 11.72z" fill="url(#AB)"/><path d="M1509.13 262.38c2-13.25 27-25.14 27-25.14l8.39-16.49a89 89 0 0 1 33.93-45.36l11.1-7.68c10.92-7.54 27.7-4.06 38.15 4.11 23.21 18.14 57.52 48.36 69.23 58.74a8.94 8.94 0 0 0 9.2 1.64l2.07-.81a2.71 2.71 0 0 1 3.67 2.94l-7.17 46.88-82.21-4.48c-9.86-.42-38.38-2.66-42.55-11.61l-6.81-19c-18.47 14.39-41.78 23.82-54.16 26.33-5.69 1.17-10.77-3.99-9.84-10.07z" fill="url(#AC)"/><path d="M1572.18,141.65l24.23,25.65a4.49,4.49,0,0,1,.07,6.12c-8.19,9-15.1,13.55-20.68,13.68a6.54,6.54,0,0,1-5.73-3.34L1557.54,162Z" fill="url(#AD)"/><path d="M1529,133.69s2.31,28.07,11.44,37.07,27.89,3.32,35-17.47l-10.9-36.52Z" fill="url(#AE)"/><path d="M1565,140.12a1.23,1.23,0,0,1-1.54-1.18c-.24-2.59-.87-7.73-2.46-11.28,0,0,1.07-3.62-8.27,1.52s-23.35,12.69-31.18,7.5c-7.65-5.05-14.57-29.15,6-23.86a1.29,1.29,0,0,0,1.52-1.38c-.09-3.92.64-12.88,8.81-15.42,7.64-2.38,11.6,1.64,13.2,4a1.14,1.14,0,0,0,1.91,0c2.4-3.23,8.83-10,17.65-5.18,7.27,4,8.21,9.24,8,12.46a1.24,1.24,0,0,0,1.68,1.39c2.32-1.09,6-1.54,9.3,3.57,4.55,7.07-2.63,12.73-4.77,14.2a1.42,1.42,0,0,0-.6,1.12c-.18,3.56-1.34,19.11-8.62,27.6a1.17,1.17,0,0,1-2-.49l-4.7-14.54a1.19,1.19,0,0,0-1.48-.85Z" fill="url(#AF)"/><path d="M1564.73,143s3.89-14.8,8.61-9.74-1.95,15.47-7.69,17.27Z" fill="url(#AG)"/><path d="M1599.23 198.76s.31-30.07 12.68-30.15c15.35-.09 39.5 12.07 22.95 55.46-9.14 24-22.12 41.5-56 47.71a49.68 49.68 0 0 0-10.24-26.25c14.11-9.03 26.32-23.53 30.61-46.77z" fill="url(#AH)"/><path d="M1570.19,245.69a1.25,1.25,0,0,0,.7-.19c16.2-10.41,25.58-25.19,29.52-46.52a1.23,1.23,0,0,0,0-.2c.09-8,2.32-28.91,11.48-29a29.91,29.91,0,0,1,13,2.92,1.21,1.21,0,0,0,1-2.17,32.52,32.52,0,0,0-14-3.15c-13.13.08-13.84,28.92-13.87,31.24-3.82,20.57-12.86,34.82-28.43,44.82a1.21,1.21,0,0,0,.59,2.22Z" fill="url(#AI)"/><path d="M1589.65 270.42a1.31 1.31 0 0 0 .39-.05c28.21-8.41 38.76-27 46-45.87a99.11 99.11 0 0 0 3.84-12.26 1.2 1.2 0 1 0-2.34-.56 97.19 97.19 0 0 1-3.75 12c-7 18.28-17.17 36.32-44.39 44.42a1.21 1.21 0 0 0-.8 1.5 1.22 1.22 0 0 0 1.05.82z" fill="url(#AJ)"/><path d="M1419.42 271.55l84.93 9.41c2.66.3 5-2.18 5-5.35V152.48c0-3.17-2.11-5.78-4.78-5.91l-83.2-3.88a1.23 1.23 0 0 0-1.17 1.3l-2.08 125.76a1.69 1.69 0 0 0 1.3 1.8z" fill="url(#AK)"/><path d="M1515.96 260.49l-21.39-9.4-26.15 19.04 45.27 2.11 2.27-11.75z" fill="url(#AL)"/><path d="M1509.3 271.88l.55-11.65s32.63 2.12 58.81-14.7a49.68 49.68 0 0 1 10.24 26.25c-17.12 3.14-39.58 3.38-69.6.1z" fill="url(#AM)"/><path d="M303.78,392.3s0,5,16.07,4.66c8.95-.17,25.55-2.12,34.93,11.88a19.18,19.18,0,0,0,21.94,7.83c20.6-6.71,55.09-11.63,76.55,19.2,16.37,23.54,8.3,39.67-3.59,49.83-8.73,7.46-10.47,20.49-3.38,29.53,6.79,8.67,9.53,21.28-2.74,38.52-27.49,38.63-98.44-9.09-98.44-9.09L278.87,432.28Z" fill="url(#AN)"/><path d="M436.81 473.3a1.37 1.37 0 0 1-.58-.14.14.14 0 0 1-.05-.18.12.12 0 0 1 .17-.05c.93.49 1.93-.67 2.37-1.43 5.82-10 4.56-24-3.05-34a29.61 29.61 0 0 0-17.31-11.4c-4.7-1-9.52-.58-14.05-.1-7.68.82-15.4 2-22.95 3.57l-1.86.39a67.72 67.72 0 0 1-13.62 1.9h-.08c-5.89 0-11.05-1.71-14.53-4.82a32.38 32.38 0 0 1-5.35-6.9c-1.88-2.94-3.83-6-6.74-7.93a.13.13 0 0 1 0-.18.12.12 0 0 1 .17 0c3 2 4.92 5 6.82 8a31.69 31.69 0 0 0 5.3 6.85c3.44 3.07 8.53 4.75 14.36 4.75h.08a67.94 67.94 0 0 0 13.56-1.89l1.86-.39a236.94 236.94 0 0 1 23-3.57c4.55-.49 9.39-.88 14.12.1a29.86 29.86 0 0 1 17.47 11.5c7.67 10.08 8.93 24.18 3.06 34.27a2.89 2.89 0 0 1-2.17 1.65zm.1-4.81h0a.13.13 0 0 1-.1-.15c1.25-6.62.74-12.79-1.47-17.84-2.58-5.88-7.67-10.21-13.27-11.29a.13.13 0 0 1-.1-.15.12.12 0 0 1 .15-.1c5.68 1.1 10.84 5.48 13.45 11.44 2.24 5.09 2.75 11.31 1.49 18a.13.13 0 0 1-.15.09z" class="Dh"/><path d="M122.1,745.38c.16-.07,88.17-154.19,100.06-168.7a9.24,9.24,0,0,1,8.24-3.3L255,576.3l28.86,62.43-48.08-28c4.76,32.9-57,81.79-78.18,99.63a4.87,4.87,0,0,0-.39,7.09l8.46,8.85c-13.89,14.07-29.91,23.11-48,27.29Z" fill="url(#AO)"/><path d="M160.74 721.53s5.39 1.75 7.22 6.56a5.5 5.5 0 0 1-2.07 6.33c-8.89 6.37-38.2 26.93-51.73 31a1.52 1.52 0 0 1-1.91-1.8c.69-3.14 2.94-9.42 10.17-18.61l-.65 1.32a1.88 1.88 0 0 0 2.61 2.48c9.04-5.16 27.47-16.34 36.36-27.28z" fill="url(#AP)"/><path d="M156.38,783.2c.15-.09,13.35-31.9,13.5-32,12.11-73.71,41.64-136.84,50.36-153.45a9.18,9.18,0,0,1,7.39-4.9l24.64-2.11,40.9,55.3-52.75-17.69c11.32,31.26-39.27,91.64-56.4,113.4a4.86,4.86,0,0,0,1.06,7l10.07,7c-10.75,16.59-24.61,28.68-41.47,36.43Z" fill="url(#AQ)"/><path d="M189.39 752s5.64.61 8.4 5a5.49 5.49 0 0 1-.74 6.62c-7.42 8-32 34.1-44.4 40.78a1.53 1.53 0 0 1-2.24-1.38c.05-3.22 1-9.82 6.2-20.28l-.37 1.42a1.88 1.88 0 0 0 3 1.9c7.88-6.84 23.66-21.52 30.15-34.06z" fill="url(#AR)"/><path d="M367.65 579.1s22.3 33.16 24.13 48.29-6.17 20.36-29.5 22.29c-69.46 5.74-103.69-15.07-103.69-15.07-4.75-30.3-8.13-38-47.81-54.47 0 0 50.18 4 60.28.06s96.59-1.1 96.59-1.1z" fill="url(#AS)"/><path d="M307.35,574.7s-26-24.72-38.75-41.1a34.72,34.72,0,0,1-5.88-31.27c5.83-19.66,16.2-40,17.15-43.19,1.45-4.86,30.56-4.66,30.56-4.66s57.3,37.19,79.81,100.17L365,562.52s-15-25.09-29.74-41c0,0,25.57,33.79,26.47,47.62Z" fill="url(#AT)"/><path d="M276.35,432c.3,1,7.9,26.2,8.5,26.73s16.66,1.38,24.23-3.79l-15.44-34.15Z" fill="url(#AU)"/><path d="M257.88,584.46l19.51-21.23,22.53,6.07s26.27,4.07,41.31,0l15-4.07,34-10.58,5.33,15.08a9.08,9.08,0,0,1-3.31,10.44,60.06,60.06,0,0,1-8.58,5.34c-4.48,2-103.08.62-103.08.62Z" fill="url(#AV)"/><path d="M322.46,592.86h-.21l-89.74-.1a4,4,0,1,1,0-8l89.74.09a4,4,0,0,1,.2,8Z" fill="url(#AW)"/><path d="M151.84 511.38h74.73a14.24 14.24 0 0 1 12.89 8.17L274 592.82h-92.87a8.66 8.66 0 0 1-8-5.48l-26.79-67.8a6 6 0 0 1 5.5-8.16z" fill="url(#AX)"/><path d="M204.49 549c1.62 5 .42 9.92-2.67 10.91s-6.92-2.27-8.54-7.3-.42-9.92 2.67-10.92 6.92 2.23 8.54 7.31z" class="Dh"/><path d="M262 397.79s-6.82 12.23-2.27 32.32 15 22.84 22.21 18.72 16.8-11.83 19.65-29.33-30.35-37.11-39.59-21.71z" fill="url(#AY)"/><path d="M288.58,417s-9.1-27.48-28.36-12.87l-2,6.63s-16.29-6.46-9.25-21.11,24.14-20.42,41.09-8.76,25.86,21.36,23.5,35.09-12.25,8-12.25,8-1-10.37-5.66-12.67-5.36,5.42-5.36,5.42Z" fill="url(#AZ)"/><path d="M292.58,417.76s-4.76-14.1,3.86-13.73,3.77,13.51,1.57,18.26Z" fill="url(#Aa)"/><path d="M1850.43 1388.66a3 3 0 0 0 3-3.05V1021a3 3 0 0 0-6.1 0v364.6a3 3 0 0 0 3.1 3.06z" fill="url(#Ab)"/><path d="M1933.09 1388.66a3 3 0 0 0 3.05-3.05V1021a3 3 0 0 0-6.1 0v364.6a3 3 0 0 0 3.05 3.06z" fill="url(#Ac)"/><use xlink:href="#DZ" fill="url(#Ad)"/><use xlink:href="#DZ" x="-96.35" fill="url(#Ad)"/><rect x="1841.4" y="1015.77" width="151.48" height="8.6" rx="2.81" transform="matrix(-1 0 0 -1 3834.28 2040.13)" fill="url(#Ae)"/><path d="M1907.41,1080.16h96.64a3.05,3.05,0,1,0,0-6.1h-96.64a3.05,3.05,0,1,0,0,6.1Z" fill="url(#Af)"/><path d="M1937.06 1143.46h96.64v6.1h-96.64z" fill="url(#Ag)"/><path d="M1965.77 1212.85h96.64v6.1h-96.64z" fill="url(#Ah)"/><path d="M1995.87,1288.34h96.64a3.05,3.05,0,0,0,0-6.1h-96.64a3,3,0,0,0,0,6.1Z" fill="url(#Ai)"/><path d="M2025,1357.74h96.63a3.05,3.05,0,0,0,0-6.1H2025a3,3,0,0,0,0,6.1Z" fill="url(#Aj)"/><path d="M1538.44 944.84a2.91 2.91 0 0 1-2.32-1.16l-5.26-7.13a45.29 45.29 0 0 1-12.45-1.1l-6.43 6.09a2.88 2.88 0 0 1-3.31.47l-10.62-5.54a2.89 2.89 0 0 1-1.52-3l1.32-8.76a45.77 45.77 0 0 1-8-9.58l-8.86-.25a2.87 2.87 0 0 1-2.67-2l-3.59-11.43a2.89 2.89 0 0 1 1-3.18l7.13-5.26a45.26 45.26 0 0 1 1.1-12.45l-6.09-6.43a2.86 2.86 0 0 1-.46-3.31l5.53-10.62a2.88 2.88 0 0 1 3-1.52l8.76 1.32a45.77 45.77 0 0 1 9.58-8l.25-8.86a2.87 2.87 0 0 1 2-2.67l11.43-3.59a2.89 2.89 0 0 1 3.18 1l5.26 7.13a45.65 45.65 0 0 1 12.45 1.1l6.43-6.09a2.86 2.86 0 0 1 3.31-.46l10.62 5.53a2.9 2.9 0 0 1 1.52 3l-1.32 8.75a45.77 45.77 0 0 1 8 9.58l8.86.25a2.87 2.87 0 0 1 2.67 2l3.59 11.43a2.88 2.88 0 0 1-1 3.18l-7.12 5.27a45.22 45.22 0 0 1-1.1 12.44l6.09 6.43a2.87 2.87 0 0 1 .46 3.31l-5.53 10.62a2.88 2.88 0 0 1-3 1.52l-8.76-1.32a45.77 45.77 0 0 1-9.58 8l-.25 8.86a2.87 2.87 0 0 1-2 2.67l-11.43 3.59a2.8 2.8 0 0 1-.87.17zm-5.61-12.55l6.08 8.23 9.74-3.06.28-10.24 1-.58a41.17 41.17 0 0 0 10.27-8.64l.74-.86 10.12 1.51 4.72-9-7-7.43.28-1.1a41.19 41.19 0 0 0 1.18-13.37l-.09-1.14 8.24-6.08-3.07-9.74-10.23-.28-.58-1a41.35 41.35 0 0 0-8.61-10.29l-.86-.75 1.51-10.11-9-4.72-7.43 7-1.1-.28a41.19 41.19 0 0 0-13.37-1.18l-1.14.08-6.08-8.23-9.74 3.06-.28 10.24-1 .58a41.35 41.35 0 0 0-10.29 8.61l-.74.86-10.12-1.51-4.72 9.05 7 7.43-.28 1.1a41.19 41.19 0 0 0-1.18 13.37l.08 1.14-8.23 6.08 3.07 9.74 10.23.28.58 1a41.17 41.17 0 0 0 8.61 10.29l.86.74-1.51 10.12 9 4.72 7.43-7 1.1.28a41.19 41.19 0 0 0 13.37 1.18zm46.24-52.29h0zm-22.42-32.5h0zm-27.82 74.21a31 31 0 0 1-26.33-14.75 2.061 2.061 0 1 1 3.51-2.16 26.84 26.84 0 1 0-.93-26.46 27.22 27.22 0 0 0-2.09 5.32 2.073 2.073 0 1 1-4-1.09 31.23 31.23 0 0 1 2.41-6.13 31 31 0 1 1 27.4 45.27zm-.21-18.23a12.7 12.7 0 1 1 9.48-4.24 12.68 12.68 0 0 1-9.48 4.24zm0-21.26h-.5a8.5 8.5 0 0 0-5.91 2.86h0a8.57 8.57 0 0 0 .69 12.1 8.58 8.58 0 1 0 5.72-15zm-8 1.49h0zm79.8-22.32a1.94 1.94 0 0 1-1.54-.77l-2.4-3.17a22.45 22.45 0 0 1-5.55-.42l-2.85 2.75a1.94 1.94 0 0 1-2.23.34l-5.14-2.61a2 2 0 0 1-1-2l.55-3.92a22.56 22.56 0 0 1-3.62-4.24l-4-.06a1.94 1.94 0 0 1-1.81-1.34l-1.79-5.47a2 2 0 0 1 .68-2.15l3.16-2.4a22.5 22.5 0 0 1 .43-5.55l-2.76-2.85a1.93 1.93 0 0 1-.33-2.22l2.61-5.14a1.91 1.91 0 0 1 2-1l3.93.54a22.19 22.19 0 0 1 4.23-3.62l.07-4a1.94 1.94 0 0 1 1.33-1.81l5.48-1.79a2 2 0 0 1 2.15.68l2.39 3.16a22.91 22.91 0 0 1 5.55.43l2.85-2.76a1.94 1.94 0 0 1 2.23-.33l5.14 2.61a1.94 1.94 0 0 1 1 2l-.55 3.93a22.5 22.5 0 0 1 3.62 4.23l4 .07a1.92 1.92 0 0 1 1.81 1.34l1.79 5.47a2 2 0 0 1-.67 2.15l-3.17 2.39a22.07 22.07 0 0 1-.43 5.56l2.76 2.85a1.94 1.94 0 0 1 .34 2.22l-2.61 5.14a1.93 1.93 0 0 1-2 1l-3.93-.54a22.55 22.55 0 0 1-4.23 3.62l-.06 4a2 2 0 0 1-1.34 1.81l-5.48 1.79a1.76 1.76 0 0 1-.61.08zm-2.49-7.15l2.91 3.86 3.92-1.28.08-4.83.73-.44a19.44 19.44 0 0 0 4.77-4.08l.55-.66 4.78.67 1.87-3.67-3.36-3.48.2-.83a19.32 19.32 0 0 0 .49-6.25l-.08-.85 3.86-2.92-1.28-3.92-4.83-.08-.45-.73A19.18 19.18 0 0 0 1608 820l-.65-.55.67-4.79-3.68-1.86-3.47 3.35-.83-.2a19.36 19.36 0 0 0-6.26-.48l-.85.07-2.91-3.85-3.92 1.27-.08 4.84-.73.44a19.44 19.44 0 0 0-4.77 4.08l-.55.65-4.78-.66-1.87 3.67 3.36 3.48-.2.82a19.38 19.38 0 0 0-.48 6.26l.07.85-3.86 2.92 1.28 3.91 4.84.08.44.73a19.26 19.26 0 0 0 4.08 4.77l.65.55-.66 4.79 3.67 1.86 3.47-3.36.83.21a19.38 19.38 0 0 0 6.26.48zm-12 3.32h0zm1.32-.2zm-5.13-2.6zm36-10.37h0zm-45.35-19zm30.86-13h0zm1.32-.2h0zm-18.81-.08h0zm5.75 37.63a1.74 1.74 0 0 1-.39 0 15.74 15.74 0 0 1-3.08-1.17 15.46 15.46 0 1 1 15.22-.7 1.541 1.541 0 1 1-1.64-2.61 12.37 12.37 0 1 0-12.18.55 12.46 12.46 0 0 0 2.46.94 1.55 1.55 0 0 1-.39 3z" class="Dj"/><path d="M1464.58 1410.28a9.72 9.72 0 0 1-2.82-.41c-3.61-1.12-5.28-4.12-3.73-6.7l149.54-248.63c1.56-2.58 5.75-3.78 9.37-2.67s5.29 4.12 3.73 6.7l-149.54 248.63c-1.13 1.93-3.79 3.08-6.55 3.08z" class="Dk"/><path d="M1821.69,1240.36c3.11,4.61,15.48,108.85,17.42,147.34a4.56,4.56,0,0,1-4.56,4.78h0a4.57,4.57,0,0,1-4.51-3.86l-22.62-144.94Z" fill="url(#Ak)"/><path d="M1722.27,1240.36c-3.11,4.61-15.47,108.85-17.41,147.34a4.55,4.55,0,0,0,4.56,4.78h0a4.57,4.57,0,0,0,4.51-3.86l22.61-144.94Z" fill="url(#Al)"/><path d="M1840.4 1232.23v1.13c.07 8.18-7 14.89-15.79 15l-104.55 1.78c-8.69.14-15.94-6.14-16.36-14.19l-.06-1c-.44-8.4 6.7-15.47 15.76-15.63l104.59-1.88c9.01-.16 16.33 6.49 16.41 14.79z" fill="url(#Am)"/><g class="Dk"><path d="M536.51 1412.76a9.34 9.34 0 0 1-2.81-.42c-3.62-1.12-5.29-4.15-3.74-6.76l149.55-251c1.55-2.61 5.74-3.81 9.36-2.69s5.29 4.15 3.74 6.76l-149.55 251c-1.16 1.94-3.79 3.11-6.55 3.11z"/><path d="M705 1412.76c-2.77 0-5.4-1.17-6.56-3.11l-149.54-251c-1.56-2.61.12-5.64 3.73-6.76s7.81.08 9.37 2.69l149.54 251c1.56 2.61-.11 5.64-3.73 6.76a9.34 9.34 0 0 1-2.81.42z"/></g><path d="M1340.68 1265.28h11.77v127.27h-11.77z" fill="url(#An)"/><path d="M1398.1,1395H1295v-.55a7.12,7.12,0,0,1,7.11-7.11h88.31a7.66,7.66,0,0,1,7.66,7.66Z" fill="url(#Ao)"/><rect x="1283.8" y="1236.77" width="129.59" height="36.75" rx="12.66" fill="url(#Ap)"/><path d="M1259.68 1180.42s-17.49 2.72-37.15 15.86a9.8 9.8 0 0 0-4.32 9.37c2.35 18.64 12 79 44 138a14.8 14.8 0 0 1 1.42 10.18l-5.63 25.77-10.29 9.64h26.49l17.64-47.73-7.54-2.38a14.28 14.28 0 0 1-10-13.36l-.88-51.2c.75-22.81-14-38.55-14-38.55l42.31-2.06z" fill="url(#Aq)"/><path d="M1237.41 1393.9c-2.41 3.15 26 7.32 40.3.41 0 0 19.88-34.57 19.88-52.38 0 0-1.58-3.63-13.25-2.8 0 0-6.67 40.94-13.72 45.52s-19.71.47-19.71.47-9.91 4.12-13.5 8.78z" fill="url(#Ar)"/><path d="M1296.45,1236.77c-.22-.39-45.54-5.45-45.54-5.45s1.48,13.78-3.16,32.75-71.17,101.15-71.17,101.15l7,22.12c-21.57,7.52-42.79,8.72-63.67,3.83l43.24-26s40.47-137.9,65.26-162.51l45.43-15.71Z" fill="url(#As)"/><path d="M1398.1 1156.52s26.11 38.84 28.25 56.56-7.15 24.91-34.55 26.1-100.54 1.17-100.54 1.17l-62.43-53.35 57.32-20.83c11.82-4.59 111.95-9.65 111.95-9.65z" fill="url(#At)"/><path d="M1180.92 1379.89s7.51 7.28 2.43 15.38c0 0-59.5 10.54-75.66 5.76 0 0 3.36-7.66 21.55-16.38l-1.34 1a2.17 2.17 0 0 0 1.43 3.89c11.99-.64 36.8-2.84 51.59-9.65z" fill="url(#Au)"/><path transform="matrix(-1 0 0 -1 1697.8 2621.94)" d="M841.65 1232.61h14.49v156.71h-14.49z" fill="url(#Av)"/><path d="M785.44 1382.91h126.92v6.36a3.08 3.08 0 0 1-3.08 3.08h-121a2.86 2.86 0 0 1-2.86-2.86v-6.58h.02z" transform="matrix(-1 0 0 -1 1697.8 2775.26)" fill="url(#Aw)"/><rect x="761.44" y="1195.3" width="169.59" height="48.1" rx="16.56" fill="url(#Ax)"/><path transform="matrix(-1 0 0 -1 1035.69 2655.42)" d="M512.61 1271.06h10.48v113.3h-10.48z" fill="url(#Ay)"/><path d="M472,1386.55h91.76a6.81,6.81,0,0,0-6.81-6.82H478.78a6.82,6.82,0,0,0-6.82,6.82Z" fill="url(#Az)"/><rect x="458.34" y="1245.67" width="115.37" height="32.72" rx="11.27" fill="url(#BA)"/><path d="M595.19,1195.51s15.57,2.42,33.07,14.12a8.7,8.7,0,0,1,3.85,8.34c-2.09,16.6-10.71,70.33-39.13,122.82a13.2,13.2,0,0,0-1.27,9.06l4.94,23,9.16,8.58H582.22l-15.7-42.49,6.72-2.12a12.72,12.72,0,0,0,8.87-11.89l.79-45.59c-.68-20.3,12.45-34.31,12.45-34.31l-37.66-1.84Z" fill="url(#BB)"/><path d="M615 1385.56c2.15 2.81-23.11 6.52-35.87.37 0 0-17.7-30.78-17.7-46.63 0 0 1.41-3.23 11.8-2.5 0 0 5.94 36.45 12.21 40.53s17.55.41 17.55.41 8.86 3.67 12.01 7.82z" fill="url(#BC)"/><path d="M562.45,1245.67c.2-.34,40.55-4.85,40.55-4.85s-1.32,12.27,2.81,29.16,63.36,90,63.36,90l-6.21,19.7c19.21,6.69,38.1,7.75,56.69,3.41L681.15,1360s-36-122.77-58.09-144.67l-40.45-14Z" fill="url(#BD)"/><path d="M665.31 1373.09s-6.69 6.48-2.17 13.69c0 0 53 9.39 67.36 5.13 0 0-3-6.82-19.18-14.58l1.19.92a1.93 1.93 0 0 1-1.28 3.47c-10.67-.61-32.76-2.56-45.92-8.63z" fill="url(#BE)"/><path d="M571.62 1182.83c-3.08-1.2-12.89-2.43-25.22-3.57h0c13.07-18.8 20.77-40.72 24.76-64.8l-62.22-1.35c-5.83 21.45-38.48 63.37-40.76 67 0 0-19.95 32.75-21.37 44.51-1.91 15.78 6.37 22.19 30.76 23.24s89.51 1 89.51 1l55.57-47.49-51.03-18.54z" fill="url(#BF)"/><path d="M905,1363.49s40.1,28.91,33.14,48.33c0,0-43.88-18.93-49.19-33.85s.9-21.5.9-21.5Z" fill="url(#BG)"/><path d="M898.92,1339.26l-6.56,19a6.58,6.58,0,0,0,2.56,7.73,17.32,17.32,0,0,0,5.43,2.11,7.69,7.69,0,0,0,8.49-3.86l7.84-14.77Z" fill="url(#BH)"/><path d="M835.09,1168.6s82.39,14.28,117.73,46.92-32.44,136.79-32.44,136.79-11.1-.07-24.56-11.61c0,0,40.18-78.32,5.55-101.16-38.94-25.67-83.81-31.46-83.81-31.46l16.74-37Z" fill="url(#BI)"/><path d="M931.12 1401.08c-8.82-4.08-33.8-21.57-38-22.34s-11.51 4.18-11.51 4.18-1.77 3.19.12 8.77c5.87 7.09 18.88 20.61 36.38 25.65 12.87 3.71 21.88.25 27.48-3.79a37.1 37.1 0 0 0-14.47-12.47z" fill="url(#BJ)"/><path d="M918.1 1417.34c-17.5-5-30.51-18.56-36.38-25.65 1.29 3.76 4.25 8.61 10.57 14.3 15.69 14.1 45.66 19.18 52 18.2 5.11-.78 4.63-5.5 1.25-10.64-5.54 4.04-14.54 7.5-27.44 3.79z" fill="url(#BK)"/><path d="M874.12,1370.58c.1,2.43,5.07,10.77,8,15.44a7.57,7.57,0,0,0,6.41,3.59,19.55,19.55,0,0,0,5.3-.64,4.91,4.91,0,0,0,3.3-6.11l-5.67-19.37Z" fill="url(#BL)"/><path d="M755.79,1143.87s-18.3,48.92,0,63.8,61.94,31.63,71.69,61.26,26.3,87.22,48.44,107.62c0,0,15.56-1.51,21.38-7.71,0,0-12.61-86-20.93-108-7.2-19.1-17.81-46.68-38.15-62.09-5.82-4.41-4.81-11.4-2.11-18.19l4.92-12.36Z" fill="url(#BM)"/><path d="M946.61 1105.53c-30.68 1.85-21.12-47.17-20.57-49.11l-46.56 32.88s2.47 26.21 41.18 40a48.1 48.1 0 0 0 26.66 1.93 42.29 42.29 0 0 1-.71-25.7z" fill="url(#BN)"/><path d="M1005.93 1090.77c-11.43-8-24.39 0-24.39 0-15.28 10-26.59 14.25-34.93 14.76a42.29 42.29 0 0 0 .71 25.66c17.12-3.68 29.37-16.07 34.7-22.43a5.52 5.52 0 0 1 7.65-.84c2.38 1.88 4.69 4.46 4.27 7.16-.82 5.35 5.37 7 5.84 5.11s-2.12-13.43-2.12-13.43l17.24 17.26c4.84 4.79 10.92 0 10.92 0s-8.46-25.29-19.89-33.25z" fill="url(#BO)"/><path d="M803.56 980.73s44.63-17.87 127.69 50.7c0 0 6.94 14.36-.63 27.14s-79.68 75.06-89.59 109.6c0 0-43 14-87.4-19.14 0-.03 3.93-96.12 49.93-168.3z" fill="url(#BP)"/><path d="M891.79,964.78l-22,26.63a8.76,8.76,0,0,0-1.15,9.41c3.05,6.22,10.29,15.27,26.33,14a13.48,13.48,0,0,0,11.09-7.56l15.36-31.76Z" fill="url(#BQ)"/><path d="M769 1094.8c-5.18-21.1 47.3-68.14 47.3-68.14l-12.75-45.93s-113.32 75.44-84.44 136.1c4.14 8.7 9.64 14.79 16 18.86 9.15-24.56 23.69-35.82 33.89-40.89z" fill="url(#BR)"/><path d="M769 1091.73a1.24 1.24 0 0 1-1.2-1c-5.3-21.57 45.51-67.42 47.68-69.36a1.24 1.24 0 1 1 1.65 1.85c-.52.46-51.87 46.78-46.92 66.92a1.24 1.24 0 0 1-.91 1.5 1.54 1.54 0 0 1-.3.09z" fill="url(#BS)"/><path d="M848.5 1093s-62.22 24.16-77.41 6a10.25 10.25 0 0 1-2.08-4.17c-10.21 5.07-24.75 16.33-33.87 40.89 32.72 20.91 88.66-11.63 103.78-21.22a11.28 11.28 0 0 1 8.36-1.54c5.83 1.21 15.91 3 21.34 2.15 8-1.22 19.38 26.83 32.26 18.18 0-.03-11.03-48.79-52.38-40.29z" fill="url(#BT)"/><path d="M946.6 934.13s.38 29-4.31 42.17-5.41 22.69-21.38 19-25.4-16.34-26.81-32c0 0-2.35-24.22 3.44-31.31s49.06 2.14 49.06 2.14z" fill="url(#BU)"/><path d="M903.06,956.25l1.88.79s-1.08-19.16,6.91-19.09,37.27,5.89,47.11-1.24c9.48-6.87,9.48-20.89,3.4-27.37a1.09,1.09,0,0,0-1.47-.07l-1.12.92a1.1,1.1,0,0,1-1.78-1h0a1.09,1.09,0,0,0-1.7-1c-3,2.12-9.76,4.75-23.7,1.7-19.79-4.32-35.05-2-40.67,10.58a1.1,1.1,0,0,1-1.92.18c-1-1.4-3-2.7-6.93-1.48-6.83,2.12-9.38,14-2.12,27.67a1.09,1.09,0,0,1-.73,1.6c-2.55.47-6.84,2.32-.84,9.7,6.14,7.56,11,9.07,13,9.36a1.11,1.11,0,0,0,1.2-.73l4-11.54a1.1,1.1,0,0,1,1.46-.65Z" fill="url(#BV)"/><path d="M902.53,958.79s2.51-17.37-6.36-15.92-3.72,19.08,1.68,22Z" fill="url(#BW)"/><path d="M1633 1410.28c-2.76 0-5.39-1.15-6.55-3.08L1477 1158.57c-1.56-2.58.11-5.58 3.73-6.7s7.81.08 9.37 2.67l149.54 248.63c1.55 2.58-.12 5.58-3.73 6.7a9.72 9.72 0 0 1-2.91.41z" class="Dk"/><path d="M1648,1145.24c.62-2.2-.23-4.49-2.31-6.22a13.39,13.39,0,0,0-8.47-2.74H527.48c-4.31,0-8.32,1.51-10.64,4a6.4,6.4,0,0,0-.83,8.3l12,17.87c2.75,4.09,8.72,6.71,15.29,6.71H1629.58c6.11,0,11.36-3,12.52-7.09Z" fill="url(#BX)"/><path d="M884.61,1076.39l10.65,46.12v30.82l-177.5-3a4.36,4.36,0,0,1-4.29-4.37v-2a4.36,4.36,0,0,1,2.35-3.88l109.06-56.75Z" fill="url(#BY)"/><path d="M742.25,1119.2l-22,21.46a1,1,0,0,0,.75,1.69c15.89-.91,100.59-4.91,174.22,8.77v-70.35Z" class="Dk"/><path d="M720.45 1136.61c19.79-1.49 130.57-8.65 174.81 14.51v-70.35s-124.87 5.31-171 28c0 0 4.27 15.89-4.73 26a1.1 1.1 0 0 0 .92 1.84z" class="Dh"/><path d="M725.14 1114.22l-3.83 3.71a.67.67 0 0 0 .5 1.16c13.32-.72 97.42-3.65 173.45 32 0 .03-61.89-43.3-170.12-36.87z" class="Dj"/><path d="M895.26,1075.15s-47.22-34.57-101.45-9.55l-71.06,42.46a.5.5,0,0,0,.36.92c17.23-3.73,102.65-18.27,172.15,41.27Z" class="Dk"/><path d="M895.26,1076.39s-46.29-35.23-100.53-10.21L729,1105.63a.5.5,0,0,0,.36.92c17.24-3.73,96.39-19.88,165.89,39.66Z" class="Dj"/><g mask="url(#Ba)"><path d="M756 1094.19l47.2-27.79a6.23 6.23 0 0 1 1.76-.7c6.69-1.49 46.61-9.15 78.53 13a4.5 4.5 0 0 1 1.85 4.68l-7.42 33.8a2.22 2.22 0 0 1-3.49 1.31c-10.72-7.92-52.51-34.51-118.08-23.32a.51.51 0 0 1-.35-.98z" opacity=".71" fill="url(#Bb)"/></g><path d="M875.71 1120a3.36 3.36 0 0 1-2-.65c-11.11-8.22-52.41-34.18-117.23-23.12a1.61 1.61 0 0 1-1.8-1 1.59 1.59 0 0 1 .7-2l47.2-27.79a7.42 7.42 0 0 1 2.09-.83c7.63-1.7 47.33-9.09 79.41 13.14a5.62 5.62 0 0 1 2.3 5.84l-7.42 33.8a3.31 3.31 0 0 1-2.09 2.41 3.4 3.4 0 0 1-1.16.2zm-88.09-28.7c47.61 0 78.06 19.32 87.43 26.25a1.1 1.1 0 0 0 1.74-.65l7.42-33.8a3.38 3.38 0 0 0-1.39-3.52c-31.32-21.7-70.18-14.47-77.66-12.8a5.28 5.28 0 0 0-1.44.57l-44.43 26.16a186.41 186.41 0 0 1 28.33-2.2z" class="Di"/><path d="M728.65,1121a394.49,394.49,0,0,1,41,0c13.63.65,27.23,1.91,40.74,3.9a323.62,323.62,0,0,1,40,8.36c6.59,1.79,13.07,4,19.49,6.27s12.68,5.06,18.85,8a.65.65,0,1,1-.55,1.17h0c-6.16-2.85-12.42-5.47-18.81-7.74s-12.86-4.31-19.43-6a322,322,0,0,0-39.9-7.87c-13.45-1.83-27-2.93-40.55-3.43a393.13,393.13,0,0,0-40.63.47h0a1.54,1.54,0,1,1-.21-3.08Z" fill="url(#Bc)"/><path d="M729.48 1111c6.88-.81 13.68-1.13 20.52-1.26s13.67 0 20.49.41a282.9 282.9 0 0 1 40.6 5.24 241.33 241.33 0 0 1 39.25 11.61l2.39.92 2.36 1 4.7 2c3.08 1.47 6.22 2.81 9.23 4.42 6.13 3 12 6.53 17.78 10.13a.52.52 0 0 1 .17.71.53.53 0 0 1-.71.16h0c-5.8-3.52-11.66-7-17.78-9.89-3-1.56-6.15-2.87-9.22-4.29l-7.05-3-2.38-.89a240.15 240.15 0 0 0-39.1-11 279.23 279.23 0 0 0-40.35-4.78q-10.14-.46-20.31-.18c-6.75.19-13.56.59-20.19 1.44h0a1.38 1.38 0 1 1-.35-2.73z" fill="url(#Bd)"/><path d="M727.69,1131.89c13.41-.56,26.76-.56,40.13-.27s26.72,1,40,2.14,26.59,2.83,39.79,5a337.47,337.47,0,0,1,39,9.16.51.51,0,0,1-.3,1h0a334.6,334.6,0,0,0-39-8.66q-19.75-3-39.7-4.52t-39.92-1.65c-13.31-.15-26.66,0-39.92.73h0a1.46,1.46,0,0,1-.15-2.91Z" fill="url(#Be)"/><g class="Di"><path d="M826.21 1093.24l-.31-.19a99.35 99.35 0 0 0-14.71-7.24l-1.26-.5 36-13.1a.52.52 0 0 1 .35 1l-33.42 12.18a98.71 98.71 0 0 1 13.3 6.63 466.24 466.24 0 0 0 22.79-19.61c-13.93-1.48-29.56-3-44.75-.6l4.18 9.45a.51.51 0 1 1-.94.42l-4.76-10.68.65-.11c15.95-2.69 32.35-.93 46.81.61l1.13.12-.83.77c-7.71 7.13-15.77 14.07-24 20.64z"/><path d="M808.12 1081.29a.52.52 0 0 1-.5-.38.51.51 0 0 1 .36-.63c8-2.27 16.22-3.83 24.2-5.35l11.84-2.25a.514.514 0 1 1 .19 1.01l-11.84 2.25c-8 1.51-16.19 3.08-24.11 5.33zm4.01 10.12l-5-8.78a.52.52 0 1 1 .89-.52l4.17 7.25a9.19 9.19 0 0 1 2.13-2.18.52.52 0 1 1 .61.83 8.06 8.06 0 0 0-2.3 2.6zm26.55 3.53l13.43-19.78a11.2 11.2 0 0 0 1-.25.51.51 0 0 1 .49.54l-.75 15-.31.12a109 109 0 0 1-12.51 4zm13.81-18.51l-11.42 16.83a112.47 112.47 0 0 0 10.75-3.52z"/><path d="M857.94 1088.74l-.18-.41a116.14 116.14 0 0 1-4.84-12.32.53.53 0 0 1 0-.25.52.52 0 0 1-.11-.6.52.52 0 0 1 .69-.24 66.23 66.23 0 0 1 13.69 8.82 1.52 1.52 0 0 1 .67 1.26c-.09.78-.94 1-1.22 1.12zm-3.81-12.35a113.68 113.68 0 0 0 4.38 11.1l7.82-2.36c.46-.13.5-.25.5-.25s0-.09-.31-.35a65.27 65.27 0 0 0-12.39-8.14z"/><path d="M856.11 1094.63a.74.74 0 0 1-.59-.33l-3.07-4a.52.52 0 0 1 .82-.63l2.69 3.5 1.61-5a.51.51 0 1 1 1 .31l-1.8 5.67a.73.73 0 0 1-.42.48.78.78 0 0 1-.24 0z"/><path d="M855.72,1092.91a.51.51,0,0,1-.51-.42l-2-12.06a.52.52,0,0,1,.43-.59.51.51,0,0,1,.59.42l2,12a.52.52,0,0,1-.42.6Z"/></g><path d="M905.39,1076.39l-10.65,46.12v30.82l177.49-3a4.37,4.37,0,0,0,4.3-4.37v-2a4.38,4.38,0,0,0-2.35-3.88l-109.07-56.75Z" fill="url(#Bf)"/><path d="M1047.75,1119.2l22,21.46a1,1,0,0,1-.74,1.69c-15.9-.91-100.59-4.91-174.22,8.77v-70.35Z" class="Dk"/><path d="M1069.55 1136.61c-19.8-1.49-130.58-8.65-174.81 14.51v-70.35s124.86 5.31 171 28c0 0-4.26 15.89 4.74 26a1.1 1.1 0 0 1-.93 1.84z" class="Dh"/><path d="M1064.86 1114.22l3.83 3.71a.67.67 0 0 1-.51 1.16c-13.31-.72-97.42-3.65-173.44 32 0 .03 61.88-43.3 170.12-36.87zm-170.12-39.07s47.21-34.57 101.45-9.55l71.06 42.46a.5.5 0 0 1-.36.92c-17.24-3.73-102.66-18.27-172.15 41.27z" class="Dk"/><path d="M894.74,1076.39s46.28-35.23,100.52-10.21l65.72,39.45a.5.5,0,0,1-.36.92c-17.23-3.73-96.39-19.88-165.88,39.66Z" class="Dj"/><g mask="url(#Bh)"><path d="M1034 1094.19l-47.2-27.79a6.29 6.29 0 0 0-1.77-.7c-6.69-1.49-46.61-9.15-78.53 13a4.52 4.52 0 0 0-1.85 4.68l7.42 33.8a2.23 2.23 0 0 0 3.5 1.31c10.71-7.92 52.5-34.51 118.08-23.32a.52.52 0 0 0 .35-.98z" opacity=".71" fill="url(#Bi)"/></g><path d="M913.11 1119.8a3.35 3.35 0 0 1-2.09-2.41l-7.42-33.8a5.61 5.61 0 0 1 2.31-5.84c32.08-22.23 71.78-14.84 79.41-13.14a7.36 7.36 0 0 1 2.08.83l47.2 27.79a1.61 1.61 0 0 1 .71 2 1.63 1.63 0 0 1-1.81 1c-64.81-11.06-106.11 14.9-117.23 23.12a3.33 3.33 0 0 1-2 .65 3.46 3.46 0 0 1-1.16-.2zm117.59-26.28l-44.43-26.16a5.16 5.16 0 0 0-1.44-.57c-7.47-1.67-46.34-8.9-77.65 12.8a3.39 3.39 0 0 0-1.4 3.52l7.42 33.8a1.13 1.13 0 0 0 .7.8 1.08 1.08 0 0 0 1-.15c9.37-6.93 39.83-26.25 87.43-26.25a186.31 186.31 0 0 1 28.37 2.21z" class="Di"/><path d="M1061.11,1124.05a393.1,393.1,0,0,0-40.63-.47c-13.56.5-27.1,1.6-40.54,3.43a322.12,322.12,0,0,0-39.91,7.87c-6.56,1.71-13,3.79-19.43,6s-12.65,4.89-18.8,7.74h0a.66.66,0,0,1-.87-.32.64.64,0,0,1,.31-.85c6.17-2.94,12.45-5.64,18.85-8s12.9-4.48,19.49-6.27a323.77,323.77,0,0,1,40.06-8.36c13.5-2,27.11-3.25,40.74-3.9a394.5,394.5,0,0,1,41,0,1.54,1.54,0,1,1-.18,3.08h-.06Z" class="Dj"/><path d="M1060.13,1113.76c-6.63-.85-13.44-1.25-20.19-1.44s-13.55-.13-20.32.18a279.23,279.23,0,0,0-40.35,4.78,240,240,0,0,0-39.09,11l-2.38.89-2.36,1-4.69,2c-3.08,1.42-6.21,2.73-9.22,4.29-6.13,2.93-12,6.37-17.78,9.89h0a.51.51,0,1,1-.54-.87c5.8-3.6,11.65-7.12,17.78-10.13,3-1.61,6.15-3,9.23-4.42l4.71-2,2.36-1,2.38-.92a241.33,241.33,0,0,1,39.25-11.54,282.9,282.9,0,0,1,40.6-5.24q10.23-.59,20.49-.41c6.85.13,13.65.45,20.52,1.26a1.37,1.37,0,0,1,1.21,1.53,1.39,1.39,0,0,1-1.53,1.21h-.06Z" fill="url(#Bj)"/><path d="M1062.13,1134.8c-13.25-.71-26.6-.88-39.92-.73s-26.63.71-39.92,1.65-26.53,2.52-39.7,4.52a334.6,334.6,0,0,0-39,8.66h0a.51.51,0,1,1-.29-1,336.5,336.5,0,0,1,39-9.16q19.78-3.26,39.78-5t40-2.14c13.37-.29,26.73-.29,40.13.27a1.46,1.46,0,0,1-.12,2.91h0Z" fill="url(#Bk)"/><g class="Di"><path d="M963.78,1093.24l-.27-.23c-8.18-6.57-16.24-13.51-24-20.64l-.83-.77,1.13-.12c14.47-1.54,30.86-3.3,46.81-.61l.65.11-4.72,10.67a.51.51,0,1,1-.94-.42l4.18-9.45c-15.19-2.44-30.82-.88-44.74.6,7.35,6.76,15,13.35,22.78,19.61a98.71,98.71,0,0,1,13.3-6.63l-33.42-12.18a.52.52,0,0,1-.31-.66.52.52,0,0,1,.66-.31l36,13.1-1.27.5a99.84,99.84,0,0,0-14.71,7.24Z"/><path d="M981.88 1081.29h-.15c-7.92-2.25-16.15-3.82-24.11-5.33l-11.84-2.25a.514.514 0 0 1 .19-1.01l11.85 2.25c8 1.52 16.23 3.08 24.2 5.35a.51.51 0 0 1 .35.63.51.51 0 0 1-.49.36zm-4.02 10.12l-.44-.8a8.18 8.18 0 0 0-2.3-2.6.52.52 0 0 1-.12-.72.51.51 0 0 1 .72-.11 9 9 0 0 1 2.13 2.18l4.17-7.25a.52.52 0 1 1 .9.52zm-26.55 3.53l-1.32-.34a108.24 108.24 0 0 1-12.5-4l-.31-.12-.76-15a.52.52 0 0 1 .49-.54.49.49 0 0 1 .31.09.51.51 0 0 1 .67.16zm-13.14-5.2a112.47 112.47 0 0 0 10.75 3.52l-11.42-16.83z"/><path d="M932.05 1088.74l-8.69-2.62c-.28-.08-1.12-.34-1.22-1.12a1.5 1.5 0 0 1 .68-1.26 66.11 66.11 0 0 1 13.69-8.82.51.51 0 0 1 .68.24 5 5 0 0 0-.12.85 116.08 116.08 0 0 1-4.83 12.32zm3.81-12.35a65.19 65.19 0 0 0-12.38 8.14c-.32.26-.31.35-.31.35s0 .12.49.25l7.83 2.36a116.19 116.19 0 0 0 4.37-11.1z"/><path d="M933.89 1094.63a.8.8 0 0 1-.23 0 .74.74 0 0 1-.42-.48l-1.8-5.67a.52.52 0 1 1 1-.31l1.6 5 2.7-3.5a.51.51 0 0 1 .81.63l-3.06 4a.77.77 0 0 1-.6.33z"/><path d="M934.27 1092.91h-.08a.53.53 0 0 1-.43-.6l2-12a.52.52 0 0 1 .6-.42.5.5 0 0 1 .42.59l-2 12.06a.51.51 0 0 1-.51.37z"/></g><path d="M1341.38,1142.56h-.3l-129.59-.14a5.8,5.8,0,1,1,0-11.6l129.6.14a5.8,5.8,0,0,1,.28,11.59Z" fill="url(#Bl)"/><path d="M1095 1024.9h107.93a20.57 20.57 0 0 1 18.61 11.79l49.89 105.81h-134.14a12.52 12.52 0 0 1-11.63-7.91l-38.69-97.9a8.62 8.62 0 0 1 8.03-11.79z" fill="url(#Bm)"/><path d="M1171 1079.15c2.34 7.26.61 14.32-3.86 15.76s-10-3.29-12.33-10.55-.61-14.33 3.86-15.77 10.01 3.29 12.33 10.56z" fill="url(#Bn)"/><path d="M1344.08 917.22c4 1.23 18.17 6.33 16.34 15.48a1.67 1.67 0 0 0 2.09 1.92c6.13-1.65 19.67-3.73 28.06 6.79 7.41 9.28 1.87 18-2.64 22.85a1.68 1.68 0 0 0 1.4 2.85c11.27-1.42 35.75-1.76 39.76 21.17 3.73 21.39-11.15 27.42-20 29.12a1.67 1.67 0 0 0-.56 3.06c4.4 2.8 9.51 8.57 7.44 20-3.23 17.86-38.24 16.4-42.33 16.17a1.68 1.68 0 0 1-.73-.22l-56.09-32a1.7 1.7 0 0 1-.82-1.18l-11.32-65.39a1.7 1.7 0 0 1 .44-1.46l37.24-38.7a1.66 1.66 0 0 1 1.72-.46z" fill="url(#Bo)"/><path d="M1326.24,1130.26s-30.41-29-45.38-48.13a40.7,40.7,0,0,1-6.89-36.62c6.83-23,19-46.87,20.09-50.58,1.69-5.69,35.79-5.45,35.79-5.45s67.09,43.54,93.45,117.3l-29.6,9.22s-17.52-29.39-34.83-48.08c0,0,30,39.57,31,55.77Z" fill="url(#Bp)"/><path d="M1289.93,963.14c.36,1.18,9.26,30.68,10,31.29s19.52,1.63,28.38-4.43l-15-31.46Z" fill="url(#Bq)"/><path d="M1304.55 901.17s-16.06 6.79-27 30-2.76 33.94 7.48 35.41 25.57 1.25 41.78-13.75-1.37-59.7-22.26-51.66z" fill="url(#Br)"/><path d="M1315.93,940.43s12.12-34-18-34.36l-7.08,4.95s-11-18.83,7.08-27.82,39.36-1.56,47.08,22.87,9,40.78-3.8,52.47-18.13-1.56-18.13-1.56,7-10.93,4.14-16.78-9.41,1.21-9.41,1.21Z" fill="url(#Bs)"/><path d="M1316.57,944.88s6.12-17.5,14.3-10.53-6.64,16.16-12.45,19.14Z" fill="url(#Bt)"/><path d="M1264.29,1132.41l22.34-21.53,30.91,13.06s30.76,4.76,48.37,0l17.6-4.77,39.79-12.39,6.25,17.66a10.64,10.64,0,0,1-3.88,12.22,70.85,70.85,0,0,1-10.05,6.26c-5.24,2.29-129.17-1.59-129.17-1.59Z" fill="url(#Bu)"/><path d="M1617,1134.84h-.29l-122.91-.12a5.49,5.49,0,1,1,0-11l122.91.12a5.49,5.49,0,0,1,.27,11Z" fill="url(#Bv)"/><path d="M1446.15,1014.47a2,2,0,0,1,.13.25l51.71,111.5a5.49,5.49,0,1,1-10,4.62l-51.71-111.5a5.49,5.49,0,0,1,9.83-4.87Z" fill="url(#Bw)"/><path d="M1632.23 1382.32c19.57 0 28.23-1.68 32.1-3.21a7.42 7.42 0 0 1-7.23 5.75h-69.24a3.36 3.36 0 0 1-3.25-4.25c7.89.64 24.66 1.71 47.62 1.71z" fill="url(#Bx)"/><path d="M1584.61 1380.61a3.22 3.22 0 0 1 .57-1.18c5.27-6.73 15.87-17.31 30.28-17.1 21.11.29 28.47 2.58 44.88.12l3.87 12.83a7.36 7.36 0 0 1 .12 3.83c-3.87 1.53-12.53 3.21-32.1 3.21-22.96 0-39.73-1.07-47.62-1.71z" fill="url(#By)"/><path d="M1655.59,1348.63l4.75,16.16s-10.52,4.79-19.78.94l-1.82-14Z" fill="url(#Bz)"/><path d="M1512.08 1372.15c15.26 12.26 23.05 16.38 27 17.61a7.42 7.42 0 0 1-9.23-.06l-54-43.37a3.36 3.36 0 0 1 .12-5.34c5.81 5.44 18.21 16.78 36.11 31.16z" fill="url(#CA)"/><path d="M1476 1341a3.43 3.43 0 0 1 1.17-.56c8.31-1.92 23.17-3.48 34.27 5.7 16.28 13.46 20.59 19.84 34.91 28.21l-5 12.38a7.26 7.26 0 0 1-2.29 3c-4-1.23-11.77-5.35-27-17.61-17.88-14.35-30.28-25.69-36.06-31.12z" fill="url(#CB)"/><path d="M1757.23,1164.52s-117.18,9.57-141.22,20.88,19.62,169.92,19.62,169.92,6.54,3.15,21.1-1.37c0,0-14.93-117-3.82-142.43l126.88-20.75Z" fill="url(#CC)"/><path d="M1558,1352.06c-1.09,1-11.65,22.28-11.65,22.28s-11.75-2.54-14.14-10l10.57-19.21Z" fill="url(#CD)"/><path d="M1827.81,1163.54a59.29,59.29,0,0,1,3.66,21.4,32.12,32.12,0,0,1-30.66,31.43l-138.53,6.32a6.64,6.64,0,0,0-6.13,5c-3.25,12.59-19.17,51.26-96.94,128.41a6.26,6.26,0,0,1-7.76.85l-11.07-7a2.55,2.55,0,0,1-.84-3.45l80.66-137.73a31.18,31.18,0,0,1,19-14.07l118.07-30.18Z" fill="url(#CE)"/><path d="M1667.1,951.48s39,23.15,54.16,35.86L1690,1004.78s-16.9-19.52-33-27.65Z" fill="url(#CF)"/><path d="M1830.32 1164.52s-37.39 9.11-73.09 0c0 0-50-67.15-69.27-85.42 0 0-30.83 48.64-99.43 55.53l-3.83-8.55s54.62-25.18 71.43-63.86 23.57-55.22 38.87-65.28c9.53-6.29 15.23-10.58 18.18-12.93a4.88 4.88 0 0 1 5.6-.35c16.22 9.89 92.62 62.21 111.54 180.86z" fill="url(#CG)"/><path d="M1708.47,1043a148.37,148.37,0,0,1-18.48,32.76Z" fill="url(#CH)"/><path d="M1592.65,1121.62l-7.72-2.06-23.45-5.43a10.81,10.81,0,0,0-8.24,1.39l-20.16,12.68,55.68-.09Z" fill="url(#CI)"/><path d="M1614.29,947s12,25.94,21.73,35.66,14.45,17.87,27.1,7.84,15.64-25.31,10.24-39.84c0,0-8.2-22.53-16.35-26.37S1614.29,947,1614.29,947Z" fill="url(#CJ)"/><path d="M1662.39,948.13l-.9.41a2.18,2.18,0,0,1-3-1.2c-1.74-4.55-6.25-14.42-11.74-11.75-6.49,3.17-18,8.78-22,14.8-1.59,2.4-3,5.14-5.44,6.59-3,1.76-6.82,1.14-10.13.06-8.53-2.79-15.84-12.74-15.91-21.73a13.72,13.72,0,0,1,6.35-12c3.6-2.35,14.46-2.3,15.43-6.07a16.48,16.48,0,0,1,7.76-9.69,34.83,34.83,0,0,1,12-4c4.64-.82,9.5-1.23,14,.1,4.77,1.41,8.3,2.83,13.26,3,3.13.14,5.33-.21,8.1,1.54,6.79,4.3,8.12,15,7.82,22.14a1.08,1.08,0,0,0,1.33,1.12c9.14-2.49,3.29,10.52,4.07,14.32.57,2.82,6.44,13.93.54,14.93-1.91.32-3.74-.74-5.38-1.76-6.2-3.86-7.8-8.26-11.81-13.81a1.07,1.07,0,0,0-1.68-.08Z" fill="url(#CK)"/><path d="M1663.94,950.17s-9.61-14.38-1.11-16.86,11.41,15.38,7.87,20.3Z" fill="url(#CL)"/><path d="M559.18 1126.16l100.46-1.25a13.93 13.93 0 0 1 8.88 3.12l35.65 28.49c2.8 2.24 1.4 7.11-2.07 7.16l-110.1 1.69a10.18 10.18 0 0 1-7.25-2.95l-28.48-27.66c-3.08-2.98-1.19-8.55 2.91-8.6z" fill="url(#CM)"/><path d="M561.8 1126l94.45-1.17a13.1 13.1 0 0 1 8.35 2.92l33.52 26.79c2.63 2.11 1.31 6.68-2 6.73l-103.52 1.6a9.65 9.65 0 0 1-6.82-2.78l-26.77-26c-2.83-2.78-1.01-8.02 2.79-8.09z" class="Dh"/><path d="M608.19,959.71c0,3.22-29,122.51-29,122.51l-82.67,24.32a37.16,37.16,0,0,1-41.91-15.85h0a74.71,74.71,0,0,1,23.47-103.07l11.7-7.36a219.75,219.75,0,0,0,63.37-60.43l4.41-6.33Z" fill="url(#CN)"/><path d="M467.38 1074.89a.37.37 0 0 1-.14 0c-10-6-11-19.63-10.95-25.2a64.73 64.73 0 0 1 8.41-31.27c9.69-17.07 26.39-28.63 42.54-39.82l3.34-2.31c16.38-11.4 34.47-25.23 41.81-45.2a.26.26 0 0 1 .33-.16.26.26 0 0 1 .15.33c-7.39 20.12-25.55 34-42 45.45l-3.33 2.29c-16.11 11.16-32.76 22.69-42.39 39.66a64.15 64.15 0 0 0-8.34 31c-.05 5.47.89 18.85 10.7 24.75a.26.26 0 0 1 .09.35.27.27 0 0 1-.22.13zm6.7-17.75a.25.25 0 0 1-.25-.21c-2.2-11.16-1.86-21.14 1-29.65 5.15-15.4 18.77-26.57 30.06-34.58l6.84-4.76c10.37-7.13 21.09-14.51 28.85-24.53a.25.25 0 0 1 .36 0 .27.27 0 0 1 .05.36c-7.81 10.09-18.57 17.49-29 24.65l-6.83 4.75c-11.23 8-24.77 19.07-29.87 34.32-2.82 8.43-3.14 18.32-1 29.39a.26.26 0 0 1-.2.31z" class="Dj"/><path d="M565.59,1119s27.07-25.78,40.4-42.85a36.24,36.24,0,0,0,6.13-32.6c-6.08-20.5-16.89-41.73-17.88-45-1.51-5.06-31.86-4.85-31.86-4.85s-59.73,38.76-83.2,104.43l26.36,8.2s15.59-26.16,31-42.8c0,0-26.66,35.23-27.6,49.65Z" fill="url(#CO)"/><path d="M602.4,963.22c-.32,1.06-12.73,34.27-13.35,34.82s-17.37,1.44-25.26-3.95l19.57-38.26Z" fill="url(#CP)"/><path d="M599.18 908.28s14.35 7.05 23.14 28.86.77 31.2-8.69 32-23.46-.19-37.52-14.75 4.37-54.55 23.07-46.11z" fill="url(#CQ)"/><path d="M586.73 943.62s-9.33-31.71 18.27-30.51l6.23 4.9s11.09-16.66-5-25.83-41.31-3.25-49.64 18.71-5 36.63 6.12 48 16.68-.49 16.68-.49-5.89-10.4-2.99-15.58 8.55 1.59 8.55 1.59z" fill="url(#CR)"/><path d="M586.63,949.17s-12.84-13.66-17.54-3.87,12.77,12.22,19.36,12.59Z" fill="url(#CS)"/><path d="M520.25 1026.36l97.16 96.81-14.19 14.36-98.31-96.22a6 6 0 0 1-.76-7.7c1.69-2.48 4.73-5.53 10.17-8.23a5.16 5.16 0 0 1 5.93.98z" fill="url(#CT)"/><path d="M639.07 1157.14L629.4 1142a15.67 15.67 0 0 0-6.85 7.2l15.3 9.22a.9.9 0 0 0 1.22-1.28z" fill="url(#CU)"/><path d="M617.41,1123.17a24.83,24.83,0,0,0-14.19,14.36l19.33,11.64a15.67,15.67,0,0,1,6.85-7.2Z" fill="url(#CV)"/><path d="M515.68 1030.32a.38.38 0 0 1 .61-.44l92.71 92.75a.38.38 0 0 1 0 .54.4.4 0 0 1-.54 0l-92.71-92.75a.61.61 0 0 1-.07-.1zm-5.8 5.13a.37.37 0 0 1 .07-.43.38.38 0 0 1 .54 0l92.71 92.74a.4.4 0 0 1 0 .54.38.38 0 0 1-.54 0L510 1035.56a.26.26 0 0 1-.12-.11z" class="Dk"/><path d="M620.74,1120.87l-19.89-19.17-27.51,11.63s-27.39,4.24-43.06,0l-15.68-4.25-35.42-11-5.56,15.72a9.45,9.45,0,0,0,3.45,10.87,62.58,62.58,0,0,0,8.95,5.58c4.67,2,115-1.41,115-1.41Z" fill="url(#CW)"/><path d="M968.36 848.43a2.06 2.06 0 0 1-.35 0L956.12 847a2.88 2.88 0 0 1-2.47-2.25l-1.86-8.66a45.74 45.74 0 0 1-10.87-6.14l-8.38 2.89a2.89 2.89 0 0 1-3.21-.94l-7.39-9.43a2.9 2.9 0 0 1-.15-3.34l4.82-7.44a45.57 45.57 0 0 1-3.37-12l-8-3.88a2.87 2.87 0 0 1-1.6-2.93l1.44-11.89a2.88 2.88 0 0 1 2.26-2.47l8.66-1.92a45.12 45.12 0 0 1 6.14-10.88l-2.9-8.38a2.88 2.88 0 0 1 1-3.21l9.42-7.38a2.87 2.87 0 0 1 3.34-.15l7.45 4.81a45.34 45.34 0 0 1 12-3.36l3.87-8a2.88 2.88 0 0 1 2.94-1.59l11.89 1.44a2.87 2.87 0 0 1 2.47 2.25l1.85 8.66a45.8 45.8 0 0 1 10.9 6.19l8.38-2.89a2.88 2.88 0 0 1 3.21.94l7.38 9.43a2.89 2.89 0 0 1 .16 3.34l-4.82 7.44a45.55 45.55 0 0 1 3.36 12l8 3.88a2.87 2.87 0 0 1 1.6 2.93l-1.47 11.93a2.89 2.89 0 0 1-2.26 2.47l-8.66 1.86a45.12 45.12 0 0 1-6.14 10.88l2.9 8.37a2.88 2.88 0 0 1-1 3.21l-9.42 7.39a2.87 2.87 0 0 1-3.34.15l-7.45-4.81a45.44 45.44 0 0 1-12 3.36l-3.87 8a2.89 2.89 0 0 1-2.57 1.55zM957.5 843l10.13 1.23 4.48-9.2 1.12-.13a41.14 41.14 0 0 0 12.93-3.61l1-.48 8.6 5.56 8-6.29-3.35-9.68.71-.89a41.32 41.32 0 0 0 6.6-11.69l.39-1.07 10-2.14 1.23-10.14-9.2-4.47-.12-1.13a41.41 41.41 0 0 0-3.61-12.93l-.48-1 5.56-8.6-6.3-8-9.68 3.34-.88-.71A41.45 41.45 0 0 0 983 754.3l-1.07-.39-2.15-10-10.13-1.23-4.48 9.2-1.13.13a41.16 41.16 0 0 0-12.92 3.61l-1 .48-8.59-5.56-8 6.29 3.35 9.68-.72.89a41.53 41.53 0 0 0-6.59 11.69l-.39 1.06-10 2.15-1.23 10.14 9.2 4.47.12 1.13a41.41 41.41 0 0 0 3.54 12.96l.48 1-5.56 8.6 6.3 8 9.67-3.34.89.71a41.45 41.45 0 0 0 11.69 6.6l1.07.39zm37.6-6.08h0zm-77.93-55.73h0zm15.6-23.8zm36.11 66.89a31.71 31.71 0 0 1-3.75-.23 30.83 30.83 0 0 1-15.25-6.27 2.06 2.06 0 1 1 2.53-3.25 26.75 26.75 0 1 0-10.28-18.73 2.06 2.06 0 0 1-4.1.38 31 31 0 1 1 30.85 28.1zm-.23-18.13a12.7 12.7 0 0 1-11.85-17.27h0a12.68 12.68 0 1 1 11.85 17.27zm-8-15.78a8.58 8.58 0 1 0 4.53-4.76 8.53 8.53 0 0 0-4.53 4.76z" class="Dh"/><path d="M789.38 575.14a1 1 0 0 1-.82-1.65l2.58-3.27a1.033 1.033 0 0 1 1.59 1.32l-2.53 3.19a1 1 0 0 1-.82.41zm168.1 37.02a1 1 0 0 1-1-.81l-2-7.72a1.045 1.045 0 0 1 2-.61l2.07 7.89a1 1 0 0 1-.79 1.22.78.78 0 0 1-.28.03zm-6.77-20a1 1 0 0 1-.94-.59l-3.69-7.08a1.028 1.028 0 0 1 1.78-1.03l3.78 7.23a1 1 0 0 1-.93 1.44zm-11.05-18a1 1 0 0 1-.81-.4l-5.16-6.09a1.03 1.03 0 0 1 1.52-1.39l5.27 6.22a1 1 0 0 1-.18 1.45 1.09 1.09 0 0 1-.64.15zM801 562.42a1 1 0 0 1-.76-.34 1 1 0 0 1 .06-1.45l6.25-5.24a1.03 1.03 0 1 1 1.26 1.63l-6.12 5.13a1 1 0 0 1-.69.27zM924.92 559a1.1 1.1 0 0 1-.66-.23c-2-1.68-4.19-3.29-6.38-4.79a1.032 1.032 0 1 1 1.17-1.7l6.52 4.89a1 1 0 0 1 .14 1.45 1 1 0 0 1-.79.38zm-106.85-9a1 1 0 0 1-.52-1.93l7.25-3.74a1.031 1.031 0 1 1 .87 1.87l-7.09 3.66a1.09 1.09 0 0 1-.51.14zm89.1-2.49a1 1 0 0 1-.46-.11l-7.29-3.24a1.032 1.032 0 1 1 .76-1.92l7.45 3.32a1.026 1.026 0 0 1-.46 2zm-69.69-5.88a1.011 1.011 0 0 1-.3-2l7.9-2a1.023 1.023 0 0 1 .43 2l-7.73 2a1 1 0 0 1-.3-.02zm49.83-1.36h-.24l-7.83-1.55a1.012 1.012 0 0 1 .31-2l8 1.59a1.007 1.007 0 0 1-.24 2zm-29-2.47a1 1 0 0 1-1-.95 1 1 0 0 1 1-1.1l8.16-.22a1 1 0 0 1 1 1 1.06 1.06 0 0 1-1 1c-2.65-.05-5.33 0-8 .21zm101.27 91.48a1 1 0 0 1-1-1c0-1.34-.11-2.71-.21-4.07a1.003 1.003 0 1 1 2-.15l.22 4.16a1 1 0 0 1-1 1.06zm-27.01 69.26a1 1 0 0 1-.72-.3 1 1 0 0 1 0-1.46l2.79-3a1.027 1.027 0 1 1 1.53 1.37l-2.85 3a1 1 0 0 1-.75.39zm-67.75 28.4h0c-2.67 0-5.36-.12-8-.35a1.029 1.029 0 0 1 .18-2.05l7.84.34a1 1 0 0 1 1 1 1 1 0 0 1-1.02 1.06zm12.87-.85a1.027 1.027 0 0 1-.14-2.05l7.73-1.38a1.025 1.025 0 1 1 .45 2l-7.91 1.41zm-33.54-1.47a.93.93 0 0 1-.23 0l-7.74-2.09a1.047 1.047 0 1 1 .62-2l7.58 2a1.007 1.007 0 0 1-.23 2zm53.72-3.62a1.016 1.016 0 0 1-.36-2l7.23-3a1 1 0 0 1 1.38.49 1 1 0 0 1-.5 1.37l-7.4 3.12a1.07 1.07 0 0 1-.35.02zm-73.39-3.17a1 1 0 0 1-.44-.1l-7.11-3.72a1.025 1.025 0 0 1 1-1.79l7 3.65a1 1 0 0 1 .49 1.37 1 1 0 0 1-.94.63zm92-6.18a1 1 0 0 1-.86-.47 1 1 0 0 1 .3-1.43l6.41-4.54a1.03 1.03 0 0 1 1.26 1.63l-6.55 4.64a1 1 0 0 1-.59.21zM806.76 707a1 1 0 0 1-.63-.21l-6.12-5.19a1.03 1.03 0 1 1 1.4-1.51l6 5.07a1 1 0 0 1 .18 1.45 1 1 0 0 1-.83.39zm-14.9-14.5a1 1 0 0 1-.79-.38l-4.83-6.4a1.028 1.028 0 1 1 1.69-1.17l4.73 6.26a1 1 0 0 1-.8 1.69zm-11.38-17.41a1 1 0 0 1-.92-.57l-3.34-7.3a1.03 1.03 0 1 1 1.91-.77l3.27 7.14a1 1 0 0 1-.92 1.48zm-7.33-19.47a1 1 0 0 1-1-.78l-1.65-7.85a1.029 1.029 0 1 1 2.03-.34l1.62 7.68a1 1 0 0 1-.75 1.26 1.07 1.07 0 0 1-.25.01zM770.27 635a1 1 0 0 1-1-1v-4.16a1.08 1.08 0 0 1 1-1 1 1 0 0 1 1 1.05v4.07a1 1 0 0 1-1 1.06z" fill="#f7f4f9"/><path d="M792.92 621a1.13 1.13 0 0 0 .48 1.23l11.6 7.55a60.17 60.17 0 0 0 2.8 19.32l-8.92 10.56a1.13 1.13 0 0 0-.11 1.31l8.49 14.26a1.14 1.14 0 0 0 1.21.53l13.53-2.82a60.25 60.25 0 0 0 15.65 11.67l1.16 13.78a1.14 1.14 0 0 0 .85 1l16.09 4.07a1.12 1.12 0 0 0 1.22-.47l7.59-11.57a60.18 60.18 0 0 0 19.32-2.81l10.55 8.93a1.14 1.14 0 0 0 1.32.1l14.25-8.48a1.12 1.12 0 0 0 .53-1.2l-2.81-13.54a60.1 60.1 0 0 0 11.66-15.65l13.79-1.15a1.15 1.15 0 0 0 1-.86l4.08-16.08a1.13 1.13 0 0 0-.48-1.23l-11.57-7.58a60.17 60.17 0 0 0-2.8-19.32l8.89-10.55a1.13 1.13 0 0 0 .11-1.31l-8.49-14.26a1.14 1.14 0 0 0-1.21-.53l-13.53 2.82A60.25 60.25 0 0 0 893.52 577l-1.16-13.78a1.14 1.14 0 0 0-.85-1l-16.09-4.07a1.11 1.11 0 0 0-1.22.48l-7.59 11.56a60.46 60.46 0 0 0-19.32 2.81l-10.55-8.92a1.13 1.13 0 0 0-1.32-.11l-14.25 8.49a1.12 1.12 0 0 0-.53 1.2l2.81 13.54a60.1 60.1 0 0 0-11.66 15.65L798 604a1.13 1.13 0 0 0-1 .85z" class="Dh"/><path d="M865.57 647.1h0a16.14 16.14 0 0 1-11.5-4.78h0a16.28 16.28 0 0 1 11.52-27.77h0a16.28 16.28 0 0 1 0 32.55zm0-29.45a13.17 13.17 0 0 0-9.33 22.49h0a13.09 13.09 0 0 0 9.32 3.87h0a13.18 13.18 0 1 0 0-26.36zm.43 54.83a42 42 0 0 1-10.29-1.29 41.31 41.31 0 0 1-25.5-19l-.41-.69a42.84 42.84 0 0 1-2.94-6.34h0l-.34-1 2.92-1a39.21 39.21 0 0 0 3.43 7.45h0a38.51 38.51 0 0 0 52.24 13.68l.52-.31A38.49 38.49 0 1 0 832 612.62l-2.72-1.47A41.56 41.56 0 1 1 866 672.48z" class="Dj"/><path d="M822.39 744.77a.83.83 0 0 1 1 .2l1.35 1.6a.83.83 0 0 1-.13 1.16.81.81 0 0 1-1.15-.12l-1.31-1.55a.82.82 0 0 1 .08-1.16.8.8 0 0 1 .16-.13zm3.76 4.84a.82.82 0 0 1 1 .29l2.19 3.52a.83.83 0 0 1-1.44.81l-2.11-3.41a.82.82 0 0 1 .22-1.14zm4 7.09h0a.82.82 0 0 1 1.09.4l1.32 3.11.26.72a.81.81 0 0 1-.48 1.05.82.82 0 0 1-1.06-.49l-.26-.69-1.27-3a.82.82 0 0 1 .4-1.1zm2.8 7.64l.13-.05a.82.82 0 0 1 1 .57l.94 4a.82.82 0 1 1-1.61.31l-.91-3.9a.81.81 0 0 1 .5-.93zm1.53 8a.71.71 0 0 1 .26-.07.81.81 0 0 1 .9.73l.27 4.13a.82.82 0 0 1-1.64 0c0-1.33-.12-2.67-.26-4a.81.81 0 0 1 .47-.8zm.19 8.14a.74.74 0 0 1 .39-.08.83.83 0 0 1 .78.87l-.42 4.12a.823.823 0 0 1-1.63-.23l.4-4a.81.81 0 0 1 .48-.69zm-1.15 8a.79.79 0 0 1 .53 0 .82.82 0 0 1 .62 1l-1.08 4a.84.84 0 0 1-1 .54.83.83 0 0 1-.53-1c.4-1.27.75-2.57 1-3.86a.86.86 0 0 1 .46-.64zm-2.45 7.76a.84.84 0 0 1 .66 0 .82.82 0 0 1 .45 1.07l-1.72 3.77a.83.83 0 0 1-1.47-.75l1.67-3.64a.84.84 0 0 1 .41-.41zm-3.67 7.26a.81.81 0 0 1 .77.05.83.83 0 0 1 .28 1.13l-2.31 3.44a.83.83 0 0 1-1.15.17.82.82 0 0 1-.18-1.15l2.23-3.32a.86.86 0 0 1 .36-.28zm-44.61 23.62a.74.74 0 0 1 .39-.08h4a.83.83 0 0 1 .06 1.65h-4.14a.82.82 0 0 1-.31-1.56zm39.8-17a.81.81 0 0 1 .89.12.82.82 0 0 1 .08 1.16l-2.84 3a.81.81 0 0 1-1.16 0 .82.82 0 0 1 0-1.16l2.75-2.92a.66.66 0 0 1 .28-.21zm-31.67 16.76a.78.78 0 0 1 .25-.07l4-.64a.822.822 0 1 1 .33 1.61l-4.09.66a.84.84 0 0 1-.92-.72.83.83 0 0 1 .43-.85zm25.86-11.08a.84.84 0 0 1 1 .22.82.82 0 0 1-.11 1.16l-3.29 2.51a.84.84 0 1 1-1-1.35l3.19-2.42a.57.57 0 0 1 .21-.13zm-17.88 9.45h.12l3.79-1.27a.825.825 0 1 1 .59 1.54l-3.93 1.31a.82.82 0 0 1-1-.56.83.83 0 0 1 .43-1.03zm11.2-4.79a.82.82 0 0 1 1.06.33.83.83 0 0 1-.29 1.13l-3.67 1.93a.823.823 0 0 1-.7-1.49l3.54-1.87zm-33.45 6.02a.78.78 0 0 1 .48-.06l2 .3a.822.822 0 1 1-.21 1.63l-2.07-.31a.82.82 0 0 1-.2-1.56z" opacity=".64" class="Di"/><path d="M744 805.39a.82.82 0 0 1 1 .29q.57.84 1.17 1.65a.832.832 0 0 1-1.33 1l-1.21-1.7a.84.84 0 0 1 .23-1.15zm20.07-72.81l2.18-1a.84.84 0 0 1 1.08.45.82.82 0 0 1-.45 1.07l-2.12.93-1.47.71a.81.81 0 0 1-1.1-.36.82.82 0 0 1 .36-1.11zm-5 2.69a.82.82 0 0 1 1 .31.85.85 0 0 1-.27 1.14l-3.27 2.19a.832.832 0 1 1-1-1.33l3.38-2.27zm10.9-5h.1l3.92-1.09a.83.83 0 0 1 .38 1.61l-3.8 1a.822.822 0 0 1-.6-1.53zM752.62 740a.84.84 0 0 1 1 .21.82.82 0 0 1-.09 1.16l-2.87 2.7a.824.824 0 1 1-1.17-1.16c.95-1 1.94-1.9 3-2.78zm25.16-11.55a.86.86 0 0 1 .23-.06l4-.44a.822.822 0 0 1 .11 1.64l-3.92.42a.82.82 0 0 1-.94-.69.84.84 0 0 1 .52-.88zM747 745.7a.83.83 0 0 1 1 1.28l-2.4 3.12a.84.84 0 1 1-1.35-1l2.49-3.23a.85.85 0 0 1 .26-.17zm38.76-17.8a.86.86 0 0 1 .36-.07c1.35 0 2.72.09 4.07.22a.824.824 0 1 1-.16 1.64l-3.93-.22a.83.83 0 0 1-.82-.83.84.84 0 0 1 .49-.74zm-43.38 24.34a.84.84 0 0 1 .77 0 .83.83 0 0 1 .29 1.13l-1.87 3.47a.83.83 0 0 1-1.48-.73l1.93-3.58a.87.87 0 0 1 .37-.29zm-3.51 7.2a.78.78 0 0 1 .65 0 .81.81 0 0 1 .46 1.06l-1.29 3.73a.821.821 0 1 1-1.57-.48l1.33-3.85a.82.82 0 0 1 .43-.46zm-2.32 7.66a.84.84 0 0 1 .52-.06.82.82 0 0 1 .63 1l-.67 3.88a.83.83 0 0 1-.93.71.81.81 0 0 1-.7-.92l.7-4a.82.82 0 0 1 .46-.61zm-1 7.94a.82.82 0 0 1 1.17.79c-.07 1.31-.09 2.63 0 3.94a.82.82 0 1 1-1.64.05v-4.08a.82.82 0 0 1 .43-.74zm.24 8a1 1 0 0 1 .21-.04.82.82 0 0 1 .91.73l.6 3.89a.83.83 0 1 1-1.62.32l-.61-4a.83.83 0 0 1 .47-.94zm1.53 7.86h.12a.83.83 0 0 1 1 .57l1.21 3.75a.821.821 0 1 1-1.54.57l-1.26-3.87a.83.83 0 0 1 .43-1.02zm2.77 7.51a.82.82 0 0 1 1.09.4l.06.14 1.74 3.37a.82.82 0 0 1-.32 1.12.81.81 0 0 1-1.12-.31l-1.79-3.49-.06-.13a.83.83 0 0 1 .36-1.1zm53.7-69.74a.82.82 0 0 1 .49-.06l2.05.41a.82.82 0 0 1 .63 1 .84.84 0 0 1-1 .63l-2-.4a.83.83 0 0 1-.66-1 .84.84 0 0 1 .49-.58z" opacity=".64" class="Di"/><path d="M798.3 742.4a.59.59 0 0 0-.68.11l-5.12 5.14a31.41 31.41 0 0 0-10.21-.59l-4.48-5.7a.61.61 0 0 0-.67-.19l-8.21 2.83a.58.58 0 0 0-.4.56v7.25a31.35 31.35 0 0 0-7.64 6.81l-7.2-.86a.58.58 0 0 0-.6.33l-3.78 7.91a.59.59 0 0 0 .11.68l5.14 5.12A31.41 31.41 0 0 0 754 782l-5.7 4.49a.57.57 0 0 0-.19.66l2.86 8.22a.59.59 0 0 0 .56.4h7.25a31.35 31.35 0 0 0 6.81 7.64l-.86 7.2a.61.61 0 0 0 .33.61l7.83 3.78a.59.59 0 0 0 .68-.11l5.12-5.14a31.41 31.41 0 0 0 10.21.59l4.49 5.7a.57.57 0 0 0 .66.19l8.21-2.86a.58.58 0 0 0 .4-.56v-7.31a31.35 31.35 0 0 0 7.64-6.81l7.2.86a.58.58 0 0 0 .6-.33l3.79-7.83a.59.59 0 0 0-.11-.68l-5.14-5.12a31.41 31.41 0 0 0 .59-10.21l5.7-4.48a.59.59 0 0 0 .19-.67l-2.9-8.23a.59.59 0 0 0-.56-.4h-7.25a31.35 31.35 0 0 0-6.81-7.6l.86-7.2a.58.58 0 0 0-.33-.6z" class="Dh"/><path d="M782 770.92a8.54 8.54 0 0 1 12 9.48 8.55 8.55 0 0 1-15.51 3 8.56 8.56 0 0 1 2.44-11.84h0a8.49 8.49 0 0 1 1.07-.64zm6.51 14a6.41 6.41 0 0 0 .88-.5 6.9 6.9 0 1 0-7.58-11.52h0a6.9 6.9 0 0 0 6.7 12zm-12.24-25.84l2.08-.84.86-.28a21.92 21.92 0 0 1 3.07-.69h.59a.82.82 0 0 1 .85.47 1 1 0 0 1 .07.24.83.83 0 0 1-.72.92 20.06 20.06 0 0 0-15.71 11.24 20 20 0 0 0-.89 15.41 20.28 20.28 0 0 0 .78 1.92 20.16 20.16 0 0 0 37.31-15.17l-.77-1.9a20 20 0 0 0-5.33-6.94.77.77 0 0 1-.22-.29.82.82 0 0 1 .11-.87.83.83 0 0 1 1.16-.11 21.81 21.81 0 1 1-33.75 26 22.12 22.12 0 0 1-.85-2.08 21.83 21.83 0 0 1 11.36-26.93z" opacity=".56" class="Di"/><rect x="1385.59" y="383.91" width="556.27" height="369.25" rx="25.42" fill="url(#CX)"/><path d="M1908,735H1417.87a17.68,17.68,0,0,1-17.66-17.66V419.72a17.68,17.68,0,0,1,17.66-17.66H1908a17.68,17.68,0,0,1,17.66,17.66V717.36A17.68,17.68,0,0,1,1908,735Zm-490.13-330.9a15.62,15.62,0,0,0-15.6,15.6V717.36a15.62,15.62,0,0,0,15.6,15.6H1908a15.61,15.61,0,0,0,15.6-15.6V419.72a15.61,15.61,0,0,0-15.6-15.6Z" fill="url(#CY)"/><path transform="matrix(.002793 -.999996 .999996 .002793 1175.51 2109.52)" d="M1644.47 219.86h2.06v490.97h-2.06z" fill="url(#CZ)"/><path transform="matrix(.999995 -.003142 .003142 .999995 -1.74 4.64)" d="M1507.23 403.57h2.06V733.5h-2.06z" fill="url(#Ca)"/><path transform="matrix(.999995 -.003142 .003142 .999995 -1.74 5.59)" d="M1818.05 402.53h2.06v329.93h-2.06z" fill="url(#Cb)"/><path transform="matrix(.999995 -.003142 .003142 .999995 -1.74 5.28)" d="M1716.79 402.53h2.06v329.93h-2.06z" fill="url(#Cc)"/><path transform="matrix(.999995 -.003142 .003142 .999995 -1.74 4.96)" d="M1611.69 402.53h2.06v329.93h-2.06z" fill="url(#Cd)"/><rect x="1412.92" y="482.7" width="88.9" height="11.45" rx="5.56" fill="url(#Ce)"/><rect x="1412.92" y="516.34" width="88.9" height="11.45" rx="5.56" fill="url(#Cf)"/><rect x="1412.92" y="551.98" width="88.9" height="11.45" rx="5.56" fill="url(#Cg)"/><rect x="1412.92" y="592.94" width="88.9" height="11.45" rx="5.56" fill="url(#Ch)"/><rect x="1412.92" y="662.22" width="88.9" height="11.45" rx="5.56" fill="url(#Ci)"/><rect x="1516.04" y="483.83" width="88.9" height="11.45" rx="5.56" fill="url(#Cj)"/><rect x="1516.04" y="517.47" width="88.9" height="11.45" rx="5.56" fill="url(#Ck)"/><rect x="1516.04" y="594.07" width="88.9" height="11.45" rx="5.56" fill="url(#Cl)"/><rect x="1516.04" y="627.72" width="88.9" height="11.45" rx="5.56" fill="url(#Cm)"/><rect x="1516.04" y="663.36" width="88.9" height="11.45" rx="5.56" fill="url(#Cn)"/><rect x="1621.71" y="483.83" width="88.9" height="11.45" rx="5.56" fill="url(#Co)"/><rect x="1621.71" y="517.47" width="88.9" height="11.45" rx="5.56" fill="url(#Cp)"/><rect x="1621.71" y="553.11" width="88.9" height="11.45" rx="5.56" fill="url(#Cq)"/><rect x="1621.71" y="627.72" width="88.9" height="11.45" rx="5.56" fill="url(#Cr)"/><rect x="1621.71" y="663.36" width="88.9" height="11.45" rx="5.56" fill="url(#Cs)"/><rect x="1723.37" y="485.99" width="88.9" height="11.45" rx="5.56" fill="url(#Ct)"/><rect x="1723.37" y="555.27" width="88.9" height="11.45" rx="5.56" fill="url(#Cu)"/><rect x="1723.37" y="596.23" width="88.9" height="11.45" rx="5.56" fill="url(#Cv)"/><rect x="1723.37" y="629.87" width="88.9" height="11.45" rx="5.56" fill="url(#Cw)"/><rect x="1723.37" y="665.52" width="88.9" height="11.45" rx="5.56" fill="url(#Cx)"/><rect x="1826.39" y="485.99" width="88.9" height="11.45" rx="5.56" fill="url(#Cy)"/><rect x="1826.39" y="519.63" width="88.9" height="11.45" rx="5.56" fill="url(#Cz)"/><rect x="1826.39" y="596.23" width="88.9" height="11.45" rx="5.56" fill="url(#DA)"/><rect x="1826.39" y="665.52" width="88.9" height="11.45" rx="5.56" fill="url(#DB)"/><path d="M1486 394.13a1 1 0 0 1-.31-2l194.72-60.86.31.1 176.28 56a1 1 0 0 1-.62 2l-176-55.91-194.1 60.66a1.12 1.12 0 0 1-.28.01z" fill="url(#DC)"/><circle cx="1683.13" cy="339.05" r="12.95" fill="url(#DD)"/><path d="M1434.75 420.38h43.55a2.25 2.25 0 0 1 2.25 2.25v14a10.32 10.32 0 0 1-10.32 10.37H1438a10.32 10.32 0 0 1-10.32-10.32v-9.21a7.05 7.05 0 0 1 7.07-7.09z" fill="url(#DE)"/><use xlink:href="#Da" fill="url(#DF)"/><path d="M1644.63 420.38h43.55a2.25 2.25 0 0 1 2.25 2.25v14a10.32 10.32 0 0 1-10.32 10.37h-32.21a10.32 10.32 0 0 1-10.32-10.32v-9.21a7.05 7.05 0 0 1 7.05-7.09z" fill="url(#DG)"/><use xlink:href="#Da" x="210.03" fill="url(#DH)"/><use xlink:href="#Da" x="308.15" fill="url(#DF)"/><path d="M1781.66 601.11c-.37 1.17 3.9 3 6.41-1.83.09-2.3 1.48-12.13.11-14-7.3-10-21.47-22.45-21.47-22.45a3.37 3.37 0 0 0-.42 4.68l6.87 7.16c-1.43 2.6-3.19 4.79-4 7.93a9.66 9.66 0 0 0 1 7.09c1.21 2.17 2.85 5 4.41 7.21a9.5 9.5 0 0 0 7.09 4.21z" fill="url(#DI)"/><path d="M1776.17 579.32l6.26 5.3 2 5.29-5.59 6.19s-1.87-10.48-3.27-12.75-.7-3.35.6-4.03z" fill="url(#DJ)"/><path d="M1904.66,992s1.58,9,2.36,17.83a6.11,6.11,0,0,1-5.85,6.61c-11.8.49-37.05,1.45-46.11,1a2,2,0,0,1-1.75-2.73h0a4.39,4.39,0,0,1,2.27-2.39l41.71-19.17Z" fill="url(#DK)"/><path d="M1906,986.77l-1.27,10.71s-7.31,3.41-12.3-.42l3-11.94Z" fill="url(#DL)"/><path d="M1905,785.38c.55,2.8,3,139.6-11.67,200.9a2.07,2.07,0,0,0,1.22,2.42,35.93,35.93,0,0,0,11.9,2.42,3.57,3.57,0,0,0,3.56-2.57c4.18-14.22,24.21-85.49,26.82-153.56,2.92-76.07,0-2.59,0-2.59l-1.71-47Z" fill="url(#DM)"/><path d="M1952.64,996.71s2.52,4.52,5,16.53a3.72,3.72,0,0,1-3.28,4.46c-3.9.39-9.9.88-14.71.85a3.72,3.72,0,0,1-3.67-4.15c.53-4.38,2.19-11.58,7.31-17.18Z" fill="url(#DN)"/><path d="M1954.86,982.93l-3,16.2s-2.94,2.18-8.75.6l1.42-17.43Z" fill="url(#DO)"/><path d="M1962.88 789.58c12 72.18-2.6 178.39-7.5 199.18a3.25 3.25 0 0 1-2.62 2.46 21.88 21.88 0 0 1-9.36-.37 3 3 0 0 1-2.13-2.74c-.66-16.81.52-120-10.62-160.76a9.25 9.25 0 0 0-3.57-5.11l-21.63-15.38-1.66-24.86z" fill="url(#DP)"/><path d="M1886.67 652.82c35.84-.59 75.39 9.41 75.39 9.41 10.68 62.34 1.87 134.24 1.87 134.24-27.75 7.28-59-4.45-59-4.45-4.61-26-26.13-99.38-26.13-99.38-17.51-2.18-31.94-7.23-43.81-13.91 9.06-10.5 13.33-23.87 15.18-31.77 12.63 3.94 25.45 6.04 36.5 5.86z" fill="url(#DQ)"/><path d="M1780.81 600a6.85 6.85 0 0 1 8-2.24c5.28 22.28 32.93 40.34 61.34 49.17-1.85 7.9-6.12 21.27-15.18 31.77-47.19-26.48-54.16-78.7-54.16-78.7z" fill="url(#DR)"/><path d="M1948.31 696.94l13.75-34.71s33.47 22.75 39 51.59a79 79 0 0 0-29.1 7.8c-2.5-13.62-23.65-24.68-23.65-24.68z" fill="url(#DS)"/><path d="M1923,623.73l11.4,33a1.2,1.2,0,0,1-.54,1.44c-3.11,1.71-14.31,6.68-27.81-1.87a5.62,5.62,0,0,1-2.57-4l-3.7-28.54Z" fill="url(#DT)"/><path d="M1898.16,593.19s-12.52,23.57-10.92,33.09,17.13,8.84,30.68,1.11l9.47-25.46Z" fill="url(#DU)"/><path d="M1917.32,614.89a1,1,0,0,1-.42-1.43,25.46,25.46,0,0,0,3.48-7.39s2.25-1.45-5.73-3.35-19.88-4.88-22.38-11.67c-2.44-6.63,4-23.28,14.19-10a1,1,0,0,0,1.54,0c1.68-2.18,6.08-6.71,12.2-4,5.73,2.57,6.37,6.77,6.29,8.88a1,1,0,0,0,1.15,1c2.89-.55,9.84-1,13.08,6.1,2.67,5.87.93,9.19-.65,10.82a1,1,0,0,0,.42,1.61c1.9.58,4.36,2.19,4.11,6.65-.34,6.16-7.23,5.62-9.19,5.34a1,1,0,0,0-.86.3c-1.68,1.86-9.26,9.76-17.46,10.72a1,1,0,0,1-1-1.3l3.55-10.31a1,1,0,0,0-.53-1.21Z" fill="url(#DV)"/><path d="M1915.9,616.35s8.91-6.12,9.56-1-8,7.47-12.32,5.55Z" fill="url(#DW)"/><path d="M1971.94 721.62s11.7 52.78 1.1 82.46l10.59 4.89s25.71-75.11 17.41-95.15c-16.36-1.74-24.48 2.66-29.1 7.8z" fill="url(#DX)"/><path d="M1973 804.08s-6.7 8.67-6.16 12.12.66 4.86.66 4.86 3.37-2.3 3.16-5.25c-.47 9.34-3.6 20-.76 19.44s17.55-14.07 14.22-28.51c-7.5-5.24-9.61-4.67-11.12-2.66z" fill="url(#DY)"/></svg>